<svg xmlns="http://www.w3.org/2000/svg" width="102.816" height="109.987" viewBox="0 0 102.816 109.987">
  <g id="Group_18078" data-name="Group 18078" transform="translate(-74.361 -306.66)">
    <path id="Path_27520" data-name="Path 27520" d="M144.072,345.323c2.012.383,3.882,2.332,5.81,3.159,3.4,1.459,6.456,1.4,9.179-1.458a33.6,33.6,0,0,1,4.178-3.755,5.841,5.841,0,0,0,2.4-5.61c-.394-4.621-.448-9.157,4.142-13.136-4.894-.219-8.02-1.621-8.916-5.887a2.839,2.839,0,0,0-.659-.995c-.846-1.074-3.256-.959-2.747-2.946.555-2.162,1.161-4.4,3.025-6,3.364-2.874,8.562-2.692,11.2.456a7.191,7.191,0,0,1,2.014,4.306c.022,4.635,3.106,6.336,6.783,7.092,4.728.972,7.238,3.91,8.179,8.285.9,4.175,1.487,8.425,2.021,12.668.41,3.256-1.367,5.714-3.738,7.6-2.313,1.838-3.277,3.741-2.691,6.854a19.342,19.342,0,0,1-1.88,12.111c-2.446,5.071-2.964,10.4-2.475,16.036.318,3.651-.5,7.4-.81,11.106-.358,4.263-.963,8.494,1.7,12.429.837,1.236.914,3.055,1.117,4.636.2,1.6-.519,3.561-2.071,3.333-4.657-.684-9.118,2.167-13.735.513-1.482-.531-3.5-.831-3.45-2.792.044-1.87,2.022-1.714,3.4-2.13,5.4-1.639,7.687-5.744,6.32-11.261-.677-2.729-1.387-5.45-2.1-8.169-.2-.775-.251-1.763-.757-2.262-7.09-7.009-3.74-15.979-4.343-24.109-.28-3.779.189-7.734.356-11.607.125-2.9-1.206-2.787-3.173-2.093-3.513,1.239-6.831,3.186-10.767,2.865-1.615-.132-3.61.719-3.488-1.961.191-1.82-3.724-2.005-4.981-3.5C142.681,348.591,143.7,346.493,144.072,345.323Z" transform="translate(-13.563)" fill="#1c65b1"/>
    <path id="Path_27521" data-name="Path 27521" d="M111.156,423.294c1.435.235,2.233.309,3,.505.952.243,1.879.759,1.853,1.832-.039,1.6-1.449,1.3-2.431,1.365-5.739.376-11.463.612-17.188-.435-3.084-.564-6.141.315-9.053,1.283-4.432,1.474-8.282-.1-12.975-1.735,2.69-1.874,5.147-1.84,7.39-2.416,2.72-.7,5.514-1.169,8.161-2.072,2.09-.713,3.862-2.11,3.641-4.711-.623-7.33,3.537-12.264,8.777-16.173,4.91-3.663,8.634-8.395,12.577-12.843,3.5-3.95,4.22-9.433,4.275-14.783.015-1.453-.029-3.316,1.314-4.04,1.758-.949,1.77,1.543,2.827,2.047,3.068,1.464,6.387,1.469,9.707,1.387,1.727-.042,4.064-2.076,5.029.157,1.025,2.373-1.437,3.661-3.285,4.8a5.687,5.687,0,0,0-1.016,1.056c.92,1.283,2.2-.666,2.974.631-.287,1.127-1.352,1.2-2.162,1.54-2.772,1.182-4.294,3.126-4.009,6.245.29,3.185-1.294,3.553-3.962,2.893-3.029-.748-5.781-2.562-9.167-2.158a24.118,24.118,0,0,0,10.695,4.364c4.368.833,3.61.587,2.342,4.605a57.975,57.975,0,0,1-5.19,11.47c-2.165,3.8,1.9,12.654,5.872,14.792,1.1.591,2.34,1.169,1.943,2.628-.35,1.285-1.3,1.369-2.777,1.322-8.78-.278-8.718-.187-11.067-8.723-.53-1.923-.19-5.41-2.349-5.313-2.623.117-1.5,3.462-1.8,5.431C114.764,420.467,113.254,421.694,111.156,423.294Z" transform="translate(0 -12.141)" fill="#1c65b1"/>
  </g>
</svg>
