<svg xmlns="http://www.w3.org/2000/svg" width="108.301" height="32.683" viewBox="0 0 108.301 32.683">
  <g id="Pethowz" transform="translate(-42.141 -390.475)" style="isolation: isolate">
    <g id="Group_17647" data-name="Group 17647" transform="translate(42.141 390.475)" style="isolation: isolate">
      <path id="Path_25607" data-name="Path 25607" d="M42.141,390.475h7.693a3.867,3.867,0,0,1,1.7.42,7.22,7.22,0,0,1,1.585,1.049,5.221,5.221,0,0,1,1.166,1.446,3.282,3.282,0,0,1,.443,1.562v11.936a3.223,3.223,0,0,1-.443,1.585,5.334,5.334,0,0,1-1.166,1.422,7.2,7.2,0,0,1-1.585,1.049,3.869,3.869,0,0,1-1.7.42h-2.8v11.8H42.141Zm4.895,15.245a4.253,4.253,0,0,1-.676,1.213,2.116,2.116,0,0,1-1.1.746.412.412,0,0,0,.466.466h1.818a1.642,1.642,0,0,0,.77-.21,3.471,3.471,0,0,0,.746-.536,2.726,2.726,0,0,0,.559-.723,1.636,1.636,0,0,0,.21-.769v-10.07a1.64,1.64,0,0,0-.21-.769,3.07,3.07,0,0,0-1.259-1.259,1.718,1.718,0,0,0-.816-.21H45.731a.412.412,0,0,0-.466.466,2.49,2.49,0,0,1,1.1.77,3.937,3.937,0,0,1,.676,1.189Z" transform="translate(-42.141 -390.475)" fill="#ff9062"/>
      <path id="Path_25608" data-name="Path 25608" d="M83.115,415.146a3.22,3.22,0,0,1-.443,1.585,5.315,5.315,0,0,1-1.166,1.422,7.2,7.2,0,0,1-1.585,1.049,3.874,3.874,0,0,1-1.7.42h-2.7v4.615a1.638,1.638,0,0,0,.21.77,3.062,3.062,0,0,0,1.259,1.259,1.721,1.721,0,0,0,.816.21h1.725a.412.412,0,0,0,.466-.466,2.474,2.474,0,0,1-1.1-.77,3.9,3.9,0,0,1-.676-1.189v-1.632h4.9v7.18h-7.6a3.87,3.87,0,0,1-1.7-.42,7.2,7.2,0,0,1-1.585-1.049,5.322,5.322,0,0,1-1.166-1.422,3.222,3.222,0,0,1-.443-1.585V408.479a3.278,3.278,0,0,1,.443-1.562,5.2,5.2,0,0,1,1.166-1.445,7.215,7.215,0,0,1,1.585-1.049,3.87,3.87,0,0,1,1.7-.42h7.6Zm-7.6,1.352h.42a1.726,1.726,0,0,0,.816-.21,3.069,3.069,0,0,0,1.259-1.259,1.637,1.637,0,0,0,.21-.77v-4.709a4.225,4.225,0,0,1,.676-1.212,2.114,2.114,0,0,1,1.1-.746.412.412,0,0,0-.466-.466H77.8a1.634,1.634,0,0,0-.77.21,3.47,3.47,0,0,0-.745.536,2.726,2.726,0,0,0-.559.722,1.642,1.642,0,0,0-.21.77Z" transform="translate(-55.701 -396.916)" fill="#ff9062"/>
      <path id="Path_25609" data-name="Path 25609" d="M103.816,390.564v7.04H110.9v7.18h-4.9v-1.632a3.918,3.918,0,0,1,.676-1.189,2.481,2.481,0,0,1,1.1-.77.412.412,0,0,0-.466-.466h-3.5v17.11a1.638,1.638,0,0,0,.21.77,2.734,2.734,0,0,0,.559.723,3.474,3.474,0,0,0,.746.536,1.638,1.638,0,0,0,.769.21h1.212a.412.412,0,0,0,.466-.466,2.11,2.11,0,0,1-1.1-.746,4.225,4.225,0,0,1-.676-1.212V416.02h4.849v7.18h-7.04a3.866,3.866,0,0,1-1.7-.42,7.172,7.172,0,0,1-1.585-1.049,5.3,5.3,0,0,1-1.166-1.422,3.218,3.218,0,0,1-.443-1.585v-28.16Z" transform="translate(-69.177 -390.517)" fill="#ff9062"/>
      <path id="Path_25610" data-name="Path 25610" d="M131.139,403.2v19.955h-4.895V390.475h4.895v7.087h2.8a3.868,3.868,0,0,1,1.7.42,7.237,7.237,0,0,1,1.585,1.049,5.218,5.218,0,0,1,1.166,1.445,3.284,3.284,0,0,1,.443,1.562v21.12h-4.895V403.016a1.641,1.641,0,0,0-.21-.769,2.751,2.751,0,0,0-.559-.723,3.488,3.488,0,0,0-.746-.536,1.636,1.636,0,0,0-.77-.21h-1.818a.412.412,0,0,0-.466.466,2.118,2.118,0,0,1,1.1.746A4.257,4.257,0,0,1,131.139,403.2Z" transform="translate(-82.187 -390.475)" fill="#ff9062"/>
      <path id="Path_25611" data-name="Path 25611" d="M154.723,408.479a3.272,3.272,0,0,1,.443-1.562,5.19,5.19,0,0,1,1.166-1.445,7.2,7.2,0,0,1,1.585-1.049,3.869,3.869,0,0,1,1.7-.42h2.8a3.868,3.868,0,0,1,1.7.42,7.239,7.239,0,0,1,1.585,1.049,5.218,5.218,0,0,1,1.166,1.445,3.284,3.284,0,0,1,.443,1.562v16.645a3.228,3.228,0,0,1-.443,1.585,5.342,5.342,0,0,1-1.166,1.422,7.222,7.222,0,0,1-1.585,1.049,3.868,3.868,0,0,1-1.7.42h-2.8a3.869,3.869,0,0,1-1.7-.42,7.186,7.186,0,0,1-1.585-1.049,5.312,5.312,0,0,1-1.166-1.422,3.217,3.217,0,0,1-.443-1.585Zm4.895,15.758a2.365,2.365,0,0,0,1.4,1.958,2.252,2.252,0,0,0,.979-.839,2.006,2.006,0,0,0,.42-1.119V409.365a2.008,2.008,0,0,0-.42-1.119,2.267,2.267,0,0,0-.979-.839,1.945,1.945,0,0,0-1.026.839,2.166,2.166,0,0,0-.373,1.119Z" transform="translate(-95.747 -396.916)" fill="#ff9062"/>
      <path id="Path_25612" data-name="Path 25612" d="M198.4,424.051V404h4.9v25.6H188.1a3.87,3.87,0,0,1-1.7-.42,7.2,7.2,0,0,1-1.585-1.049,5.322,5.322,0,0,1-1.166-1.422,3.222,3.222,0,0,1-.443-1.585V404h4.9v20.234a1.638,1.638,0,0,0,.21.77,3.062,3.062,0,0,0,1.259,1.259,1.721,1.721,0,0,0,.816.21h1.725a.412.412,0,0,0,.466-.466,2.47,2.47,0,0,1-1.1-.77,3.893,3.893,0,0,1-.676-1.189V404h4.9v20.234a1.631,1.631,0,0,0,.21.77,3.064,3.064,0,0,0,1.258,1.259,1.724,1.724,0,0,0,.816.21h1.725a.412.412,0,0,0,.466-.466,2.477,2.477,0,0,1-1.1-.77A3.9,3.9,0,0,1,198.4,424.051Z" transform="translate(-109.308 -396.916)" fill="#ff9062"/>
      <path id="Path_25613" data-name="Path 25613" d="M237.992,413.887a3.228,3.228,0,0,1-.443,1.586,5.825,5.825,0,0,1-1.119,1.422,6.289,6.289,0,0,1-1.539,1.049,3.871,3.871,0,0,1-1.7.419,1.721,1.721,0,0,0-.816.21,3.062,3.062,0,0,0-1.259,1.259,1.642,1.642,0,0,0-.21.77v5.874h3.5a.412.412,0,0,0,.466-.466,2.47,2.47,0,0,1-1.1-.77,3.894,3.894,0,0,1-.676-1.189v-1.632h4.9v7.18H226.01v-9.884a3.278,3.278,0,0,1,.443-1.562,5.643,5.643,0,0,1,1.119-1.445,6.235,6.235,0,0,1,1.539-1.049,3.873,3.873,0,0,1,1.7-.42,1.725,1.725,0,0,0,.816-.21,3.07,3.07,0,0,0,1.259-1.259,1.636,1.636,0,0,0,.21-.77v-5.874h-3.5a.412.412,0,0,0-.466.466,2.487,2.487,0,0,1,1.1.77,3.928,3.928,0,0,1,.676,1.189v1.632h-4.9V404h11.982Z" transform="translate(-129.691 -396.916)" fill="#ff9062"/>
    </g>
  </g>
</svg>
