<svg xmlns="http://www.w3.org/2000/svg" width="25.062" height="31.718" viewBox="0 0 25.062 31.718">
  <path id="Path_21509" data-name="Path 21509" d="M25.809,34.718H3.253C2.561,34.718,2,33.929,2,32.956V19.717a2.127,2.127,0,0,1,.43-1.329l4.582-5.619V4.762C7.012,3.789,7.573,3,8.265,3H25.809c.692,0,1.253.789,1.253,1.762V32.956C27.062,33.929,26.5,34.718,25.809,34.718ZM10.772,31.194h3.759V20.519L9.519,14.373,4.506,20.519V31.194H8.265V24.145h2.506Zm6.265,0h7.519V6.524H9.519v3.748a1.067,1.067,0,0,1,.823.435l6.265,7.681a2.127,2.127,0,0,1,.43,1.329Zm2.506-14.1h2.506v3.524H19.543Zm0,7.048h2.506v3.524H19.543Zm0-14.1h2.506v3.524H19.543Zm-5.012,0h2.506v3.524H14.531Z" transform="translate(-2 -3)" fill="#ff9a71"/>
</svg>
