<svg xmlns="http://www.w3.org/2000/svg" width="153.267" height="47.306" viewBox="0 0 153.267 47.306">
  <g id="Group_18394" data-name="Group 18394" transform="translate(0.5 0.5)">
    <g id="Group_18300" data-name="Group 18300" transform="translate(0)">
      <rect id="Rectangle_6260" data-name="Rectangle 6260" width="152.267" height="46.306" rx="5" stroke="#707070" stroke-width="1"/>
    </g>
    <g id="Group_18303" data-name="Group 18303" transform="translate(8.221 8.18)">
      <g id="Group_18301" data-name="Group 18301" transform="translate(0 6.928)">
        <path id="Path_29961" data-name="Path 29961" d="M425.183,1338c-2.47,4.286-.9,10.791,1.832,14.735,1.363,1.972,2.744,3.742,4.635,3.742l.108,0a5.719,5.719,0,0,0,2.151-.573,5.89,5.89,0,0,1,2.548-.6,5.541,5.541,0,0,1,2.425.584,5.133,5.133,0,0,0,2.324.557c2.13-.04,3.437-1.949,4.591-3.635a16.1,16.1,0,0,0,2.012-4.12l.008-.026a.24.24,0,0,0-.127-.294l-.017-.007a6.1,6.1,0,0,1-3.7-5.591,6.284,6.284,0,0,1,2.969-5.253l.023-.015a.239.239,0,0,0,.068-.336,6.91,6.91,0,0,0-5.436-2.952c-.154-.015-.314-.023-.474-.023a9.476,9.476,0,0,0-3.412.852,5.473,5.473,0,0,1-1.634.489,5.348,5.348,0,0,1-1.69-.494,8.2,8.2,0,0,0-2.98-.757h-.075A7.3,7.3,0,0,0,425.183,1338Z" transform="translate(-423.951 -1334.183)" fill="#fff"/>
      </g>
      <g id="Group_18302" data-name="Group 18302" transform="translate(11.623)">
        <path id="Path_29962" data-name="Path 29962" d="M614.142,1224.412a6.67,6.67,0,0,0-4.4,2.26,6.249,6.249,0,0,0-1.583,4.634.24.24,0,0,0,.219.207c.1.008.206.012.31.012a5.644,5.644,0,0,0,4.157-2.132,6.589,6.589,0,0,0,1.549-4.767A.241.241,0,0,0,614.142,1224.412Z" transform="translate(-608.117 -1224.412)" fill="#fff"/>
      </g>
    </g>
    <g id="Group_18306" data-name="Group 18306" transform="translate(41.127 7.623)">
      <g id="Group_18304" data-name="Group 18304" transform="translate(2.116)">
        <path id="Path_29963" data-name="Path 29963" d="M978.866,1222.466h2.863a4.19,4.19,0,0,1,2,.465,3.4,3.4,0,0,1,1.359,1.287,3.826,3.826,0,0,1,0,3.732,3.4,3.4,0,0,1-1.359,1.287,4.192,4.192,0,0,1-2,.465h-2.863Zm2.822,6.761a3.775,3.775,0,0,0,1.768-.4,2.845,2.845,0,0,0,1.178-1.111,3.432,3.432,0,0,0,0-3.267,2.847,2.847,0,0,0-1.178-1.111,3.779,3.779,0,0,0-1.768-.4h-2.295v6.285Z" transform="translate(-978.866 -1222.032)" fill="#fff"/>
        <path id="Path_29964" data-name="Path 29964" d="M1103.518,1256.092a2.529,2.529,0,0,1-.966-.977,3.009,3.009,0,0,1,0-2.822,2.531,2.531,0,0,1,.966-.977,2.885,2.885,0,0,1,2.76,0,2.534,2.534,0,0,1,.967.977,3.009,3.009,0,0,1,0,2.822,2.532,2.532,0,0,1-.967.977,2.885,2.885,0,0,1-2.76,0Zm2.491-.4a2.077,2.077,0,0,0,.775-.806,2.585,2.585,0,0,0,0-2.357,2.08,2.08,0,0,0-.775-.806,2.278,2.278,0,0,0-2.223,0,2.078,2.078,0,0,0-.775.806,2.585,2.585,0,0,0,0,2.357,2.075,2.075,0,0,0,.775.806,2.278,2.278,0,0,0,2.223,0Z" transform="translate(-1094.416 -1248.732)" fill="#fff"/>
        <path id="Path_29965" data-name="Path 29965" d="M1203.609,1251.62l-2.047,5.4h-.486l-1.819-4.683-1.83,4.683h-.476l-2.047-5.4h.5l1.8,4.817,1.84-4.817h.445l1.83,4.807,1.819-4.807Z" transform="translate(-1181.27 -1249.346)" fill="#fff"/>
        <path id="Path_29966" data-name="Path 29966" d="M1356.056,1251.554a2.294,2.294,0,0,1,.589,1.7v3.153h-.517v-3.112a1.915,1.915,0,0,0-.46-1.385,1.708,1.708,0,0,0-1.287-.475,1.984,1.984,0,0,0-1.5.568,2.112,2.112,0,0,0-.548,1.53v2.874h-.517v-5.4h.5v1.168a2.053,2.053,0,0,1,.832-.889,2.563,2.563,0,0,1,1.308-.321A2.165,2.165,0,0,1,1356.056,1251.554Z" transform="translate(-1328.28 -1248.732)" fill="#fff"/>
        <path id="Path_29967" data-name="Path 29967" d="M1462.049,1215.586h.517v7.67h-.517Z" transform="translate(-1431.554 -1215.586)" fill="#fff"/>
        <path id="Path_29968" data-name="Path 29968" d="M1496.778,1256.092a2.527,2.527,0,0,1-.967-.977,3.009,3.009,0,0,1,0-2.822,2.53,2.53,0,0,1,.967-.977,2.885,2.885,0,0,1,2.76,0,2.533,2.533,0,0,1,.967.977,3.009,3.009,0,0,1,0,2.822,2.531,2.531,0,0,1-.967.977,2.885,2.885,0,0,1-2.76,0Zm2.491-.4a2.077,2.077,0,0,0,.775-.806,2.586,2.586,0,0,0,0-2.357,2.079,2.079,0,0,0-.775-.806,2.278,2.278,0,0,0-2.223,0,2.076,2.076,0,0,0-.775.806,2.585,2.585,0,0,0,0,2.357,2.074,2.074,0,0,0,.775.806,2.278,2.278,0,0,0,2.223,0Z" transform="translate(-1462.856 -1248.732)" fill="#fff"/>
        <path id="Path_29969" data-name="Path 29969" d="M1602.167,1251.477a1.981,1.981,0,0,1,.537,1.5v3.422h-.5v-.961a1.8,1.8,0,0,1-.755.739,2.5,2.5,0,0,1-1.189.264,2.19,2.19,0,0,1-1.421-.424,1.466,1.466,0,0,1-.041-2.207,2.309,2.309,0,0,1,1.535-.419h1.85v-.434a1.521,1.521,0,0,0-.408-1.148,1.658,1.658,0,0,0-1.194-.393,2.878,2.878,0,0,0-1.029.186,2.582,2.582,0,0,0-.832.5l-.258-.372a2.872,2.872,0,0,1,.972-.563,3.531,3.531,0,0,1,1.189-.2A2.148,2.148,0,0,1,1602.167,1251.477Zm-.687,4.233a1.888,1.888,0,0,0,.708-.9V1253.8h-1.84a1.831,1.831,0,0,0-1.153.29.969.969,0,0,0-.356.8,1,1,0,0,0,.393.832,1.766,1.766,0,0,0,1.106.305A2.031,2.031,0,0,0,1601.48,1255.71Z" transform="translate(-1559.226 -1248.732)" fill="#fff"/>
        <path id="Path_29970" data-name="Path 29970" d="M1697.721,1215.586v7.67h-.506v-1.271a2.316,2.316,0,0,1-.9.972,2.536,2.536,0,0,1-1.313.341,2.683,2.683,0,0,1-1.364-.351,2.517,2.517,0,0,1-.956-.972,2.856,2.856,0,0,1-.346-1.416,2.885,2.885,0,0,1,.346-1.421,2.472,2.472,0,0,1,.956-.972,2.714,2.714,0,0,1,1.364-.346,2.49,2.49,0,0,1,1.3.341,2.431,2.431,0,0,1,.9.951v-3.525Zm-1.576,6.957a2.079,2.079,0,0,0,.775-.806,2.586,2.586,0,0,0,0-2.357,2.083,2.083,0,0,0-.775-.806,2.278,2.278,0,0,0-2.223,0,2.078,2.078,0,0,0-.775.806,2.586,2.586,0,0,0,0,2.357,2.075,2.075,0,0,0,.775.806,2.278,2.278,0,0,0,2.223,0Z" transform="translate(-1647.306 -1215.586)" fill="#fff"/>
        <path id="Path_29971" data-name="Path 29971" d="M1846.3,1256.092a2.529,2.529,0,0,1-.966-.977,3.008,3.008,0,0,1,0-2.822,2.531,2.531,0,0,1,.966-.977,2.885,2.885,0,0,1,2.76,0,2.531,2.531,0,0,1,.967.977,3.009,3.009,0,0,1,0,2.822,2.529,2.529,0,0,1-.967.977,2.885,2.885,0,0,1-2.76,0Zm2.491-.4a2.078,2.078,0,0,0,.775-.806,2.585,2.585,0,0,0,0-2.357,2.081,2.081,0,0,0-.775-.806,2.278,2.278,0,0,0-2.223,0,2.076,2.076,0,0,0-.775.806,2.585,2.585,0,0,0,0,2.357,2.074,2.074,0,0,0,.775.806,2.278,2.278,0,0,0,2.223,0Z" transform="translate(-1790.323 -1248.732)" fill="#fff"/>
        <path id="Path_29972" data-name="Path 29972" d="M1960.112,1251.554a2.294,2.294,0,0,1,.589,1.7v3.153h-.517v-3.112a1.916,1.916,0,0,0-.46-1.385,1.708,1.708,0,0,0-1.287-.475,1.984,1.984,0,0,0-1.5.568,2.111,2.111,0,0,0-.548,1.53v2.874h-.517v-5.4h.5v1.168a2.053,2.053,0,0,1,.832-.889,2.564,2.564,0,0,1,1.308-.321A2.165,2.165,0,0,1,1960.112,1251.554Z" transform="translate(-1894.212 -1248.732)" fill="#fff"/>
        <path id="Path_29973" data-name="Path 29973" d="M2097.677,1239.182a1.3,1.3,0,0,1-.491.284,1.936,1.936,0,0,1-.615.1,1.457,1.457,0,0,1-1.085-.388,1.472,1.472,0,0,1-.382-1.08v-3.525h-.992v-.444h.992v-1.178h.517v1.178h1.716v.444h-1.716v3.474a1.14,1.14,0,0,0,.253.8.971.971,0,0,0,.75.274,1.2,1.2,0,0,0,.837-.3Z" transform="translate(-2023.724 -1231.852)" fill="#fff"/>
        <path id="Path_29974" data-name="Path 29974" d="M2177.624,1218.408a2.294,2.294,0,0,1,.589,1.7v3.153h-.517v-3.112a1.916,1.916,0,0,0-.46-1.385,1.708,1.708,0,0,0-1.287-.475,1.984,1.984,0,0,0-1.5.569,2.111,2.111,0,0,0-.548,1.53v2.874h-.517v-7.67h.517v3.4a1.982,1.982,0,0,1,.827-.863,2.617,2.617,0,0,1,1.292-.3A2.165,2.165,0,0,1,2177.624,1218.408Z" transform="translate(-2097.996 -1215.586)" fill="#fff"/>
        <path id="Path_29975" data-name="Path 29975" d="M2279.589,1253.828h-4.642a2.253,2.253,0,0,0,.321,1.122,2.054,2.054,0,0,0,.811.76,2.6,2.6,0,0,0,2.13.077,1.9,1.9,0,0,0,.749-.563l.3.341a2.308,2.308,0,0,1-.884.651,3.078,3.078,0,0,1-2.59-.124,2.546,2.546,0,0,1-.987-.972,2.787,2.787,0,0,1-.357-1.416,2.933,2.933,0,0,1,.336-1.411,2.477,2.477,0,0,1,.925-.977,2.674,2.674,0,0,1,2.641-.005,2.462,2.462,0,0,1,.92.967,2.9,2.9,0,0,1,.336,1.406Zm-3.587-2.155a1.929,1.929,0,0,0-.729.713,2.319,2.319,0,0,0-.315,1.039h4.135a2.169,2.169,0,0,0-.31-1.034,2.008,2.008,0,0,0-1.758-.972A2.068,2.068,0,0,0,2276,1251.673Z" transform="translate(-2192.673 -1248.732)" fill="#fff"/>
      </g>
      <g id="Group_18305" data-name="Group 18305" transform="translate(0 13.987)">
        <path id="Path_29976" data-name="Path 29976" d="M955.11,1449.5h-6.183l-1.219,2.862h-2.367L950.906,1440h2.261l5.582,12.366h-2.4Zm-.76-1.8-2.332-5.406L949.7,1447.7Z" transform="translate(-945.341 -1439.82)" fill="#fff"/>
        <path id="Path_29977" data-name="Path 29977" d="M1187.033,1485.382a4.335,4.335,0,0,1,1.7,1.7,5.488,5.488,0,0,1,0,5.061,4.315,4.315,0,0,1-1.7,1.7,5,5,0,0,1-2.464.6,3.809,3.809,0,0,1-3.021-1.272v4.576h-2.208v-12.861h2.1v1.237a3.416,3.416,0,0,1,1.351-1.007,4.566,4.566,0,0,1,1.775-.336A5.01,5.01,0,0,1,1187.033,1485.382Zm-.707,6.36a3.3,3.3,0,0,0,0-4.275,2.67,2.67,0,0,0-2.005-.813,2.84,2.84,0,0,0-1.431.362,2.619,2.619,0,0,0-1.007,1.033,3.442,3.442,0,0,0,0,3.109,2.614,2.614,0,0,0,1.007,1.034,2.839,2.839,0,0,0,1.431.362A2.669,2.669,0,0,0,1186.327,1491.741Z" transform="translate(-1164.572 -1481.778)" fill="#fff"/>
        <path id="Path_29978" data-name="Path 29978" d="M1379.046,1485.382a4.336,4.336,0,0,1,1.7,1.7,5.489,5.489,0,0,1,0,5.061,4.316,4.316,0,0,1-1.7,1.7,5.005,5.005,0,0,1-2.464.6,3.808,3.808,0,0,1-3.021-1.272v4.576h-2.208v-12.861h2.1v1.237a3.415,3.415,0,0,1,1.352-1.007,4.565,4.565,0,0,1,1.775-.336A5.01,5.01,0,0,1,1379.046,1485.382Zm-.707,6.36a3.3,3.3,0,0,0,0-4.275,2.67,2.67,0,0,0-2-.813,2.84,2.84,0,0,0-1.431.362,2.618,2.618,0,0,0-1.007,1.033,3.441,3.441,0,0,0,0,3.109,2.613,2.613,0,0,0,1.007,1.034,2.839,2.839,0,0,0,1.431.362A2.669,2.669,0,0,0,1378.34,1491.741Z" transform="translate(-1344.466 -1481.778)" fill="#fff"/>
        <path id="Path_29979" data-name="Path 29979" d="M1629.571,1449.51a5.764,5.764,0,0,1-2.111-1.078l.795-1.784a6.254,6.254,0,0,0,1.864.98,6.77,6.77,0,0,0,2.217.38,3.829,3.829,0,0,0,2.058-.442,1.338,1.338,0,0,0,.68-1.166,1.129,1.129,0,0,0-.38-.874,2.67,2.67,0,0,0-.963-.539q-.583-.194-1.59-.442a18.483,18.483,0,0,1-2.288-.671,3.763,3.763,0,0,1-1.5-1.051,2.831,2.831,0,0,1-.627-1.934,3.3,3.3,0,0,1,.556-1.864,3.766,3.766,0,0,1,1.678-1.334,6.8,6.8,0,0,1,2.747-.495,8.885,8.885,0,0,1,2.226.283,6.161,6.161,0,0,1,1.89.813l-.724,1.784a7.172,7.172,0,0,0-1.7-.724,6.355,6.355,0,0,0-1.714-.247,3.58,3.58,0,0,0-2.023.459,1.418,1.418,0,0,0-.663,1.219,1.1,1.1,0,0,0,.38.865,2.739,2.739,0,0,0,.963.53q.583.194,1.59.442a16.73,16.73,0,0,1,2.261.662,3.876,3.876,0,0,1,1.51,1.051,2.772,2.772,0,0,1,.627,1.908,3.256,3.256,0,0,1-.557,1.855,3.782,3.782,0,0,1-1.687,1.325,6.866,6.866,0,0,1-2.756.495A9.439,9.439,0,0,1,1629.571,1449.51Z" transform="translate(-1584.409 -1437.197)" fill="#fff"/>
        <path id="Path_29980" data-name="Path 29980" d="M1803.727,1464.438a2.6,2.6,0,0,1-.945.477,4.255,4.255,0,0,1-1.175.159,3.332,3.332,0,0,1-2.4-.813,3.127,3.127,0,0,1-.848-2.367v-4.54H1796.8v-1.766h1.554v-2.155h2.208v2.155h2.526v1.766h-2.526v4.487a1.492,1.492,0,0,0,.336,1.051,1.258,1.258,0,0,0,.972.362,1.94,1.94,0,0,0,1.237-.389Z" transform="translate(-1743.064 -1452.407)" fill="#fff"/>
        <path id="Path_29981" data-name="Path 29981" d="M1920.441,1493.826a4.506,4.506,0,0,1-1.793-1.723,5.151,5.151,0,0,1,0-4.99,4.526,4.526,0,0,1,1.793-1.714,5.725,5.725,0,0,1,5.176,0,4.53,4.53,0,0,1,1.793,1.714,5.151,5.151,0,0,1,0,4.99,4.51,4.51,0,0,1-1.793,1.723,5.727,5.727,0,0,1-5.176,0Zm4.593-2.085a3.271,3.271,0,0,0,0-4.275,2.7,2.7,0,0,0-2.014-.813,2.669,2.669,0,0,0-2.005.813,3.3,3.3,0,0,0,0,4.275,2.668,2.668,0,0,0,2.005.813A2.7,2.7,0,0,0,1925.034,1491.741Z" transform="translate(-1856.616 -1481.778)" fill="#fff"/>
        <path id="Path_29982" data-name="Path 29982" d="M2116.313,1484.781v2.1a2.8,2.8,0,0,0-.512-.053,2.667,2.667,0,0,0-2.014.751,2.993,2.993,0,0,0-.724,2.164v4.576h-2.208v-9.434h2.1v1.378A3.68,3.68,0,0,1,2116.313,1484.781Z" transform="translate(-2037.295 -1481.778)" fill="#fff"/>
        <path id="Path_29983" data-name="Path 29983" d="M2222.912,1490.31h-7.4a2.566,2.566,0,0,0,1.016,1.652,3.331,3.331,0,0,0,2.041.609,3.438,3.438,0,0,0,2.561-1.025l1.184,1.36a3.989,3.989,0,0,1-1.608,1.148,6.371,6.371,0,0,1-4.929-.229,4.451,4.451,0,0,1-1.828-1.723,4.86,4.86,0,0,1-.645-2.5,4.933,4.933,0,0,1,.627-2.482,4.449,4.449,0,0,1,1.74-1.722,5.077,5.077,0,0,1,2.509-.618,4.949,4.949,0,0,1,2.464.61,4.317,4.317,0,0,1,1.7,1.713,5.2,5.2,0,0,1,.609,2.553Q2222.947,1489.887,2222.912,1490.31Zm-6.527-3.136a2.638,2.638,0,0,0-.893,1.669h5.353a2.606,2.606,0,0,0-.866-1.661,2.633,2.633,0,0,0-1.8-.636A2.663,2.663,0,0,0,2216.385,1487.175Z" transform="translate(-2133.277 -1481.778)" fill="#fff"/>
      </g>
    </g>
  </g>
</svg>
