<svg xmlns="http://www.w3.org/2000/svg" width="24" height="23.987" viewBox="0 0 24 23.987">
  <g id="google-pay-or-tez" transform="translate(0 0)">
    <ellipse id="Ellipse_354" data-name="Ellipse 354" cx="11.993" cy="11.994" rx="11.993" ry="11.994" transform="translate(0 0)" fill="#fff"/>
    <path id="Path_26189" data-name="Path 26189" d="M495.751,34.461A12.414,12.414,0,0,1,489.3,32.67l8.215-22.07a12.371,12.371,0,0,1,4.146,1.358,11.854,11.854,0,0,1,4.854,16.28A12.305,12.305,0,0,1,495.751,34.461Z" transform="translate(-484.028 -10.474)" fill="#6e7bf2"/>
    <path id="Path_26190" data-name="Path 26190" d="M442.185,976.814a2.6,2.6,0,0,0-.063-.614H439.3v1.115h1.657a1.467,1.467,0,0,1-.614.975l-.006.037.892.691.062.006a2.94,2.94,0,0,0,.894-2.211" transform="translate(-434.212 -964.893)" fill="#4285f4"/>
    <path id="Path_26191" data-name="Path 26191" d="M215.985,1074.613a2.867,2.867,0,0,0,1.991-.728l-.948-.735a1.777,1.777,0,0,1-1.042.3,1.812,1.812,0,0,1-1.711-1.25l-.036,0-.928.717-.012.033a3,3,0,0,0,2.685,1.658" transform="translate(-210.766 -1059.775)" fill="#34a853"/>
    <path id="Path_26192" data-name="Path 26192" d="M187.595,909.359a1.841,1.841,0,0,1-.1-.6,1.952,1.952,0,0,1,.1-.6v-.039l-.94-.729-.031.014a3,3,0,0,0,0,2.7l.974-.754" transform="translate(-184.087 -896.888)" fill="#fbbc05"/>
    <path id="Path_26193" data-name="Path 26193" d="M215.787,770.447a1.658,1.658,0,0,1,1.162.448l.848-.828a2.89,2.89,0,0,0-2.011-.782,3,3,0,0,0-2.686,1.657l.972.754a1.819,1.819,0,0,1,1.715-1.25" transform="translate(-210.569 -760.37)" fill="#eb4335"/>
    <path id="Path_26194" data-name="Path 26194" d="M1022.4,783.18v2.185h-.7v-5.4h1.852a1.682,1.682,0,0,1,1.2.467,1.553,1.553,0,0,1,.089,2.2c-.029.031-.058.061-.089.089a1.677,1.677,0,0,1-1.2.46Zm0-2.548v1.884h1.17a.939.939,0,0,0,.715-1.573l-.007-.007c-.006-.006-.012-.013-.018-.018a.914.914,0,0,0-.69-.286Zm4.462.919a1.735,1.735,0,0,1,1.222.411,1.452,1.452,0,0,1,.448,1.126v2.276h-.667v-.513h-.03a1.337,1.337,0,0,1-1.155.633,1.5,1.5,0,0,1-1.028-.362,1.153,1.153,0,0,1-.413-.9,1.094,1.094,0,0,1,.436-.911,1.852,1.852,0,0,1,1.165-.338,2.081,2.081,0,0,1,1.024.226v-.159a.785.785,0,0,0-.289-.613.992.992,0,0,0-.674-.252,1.073,1.073,0,0,0-.925.489l-.614-.385a1.706,1.706,0,0,1,1.5-.723Zm-.9,2.682a.556.556,0,0,0,.23.453.855.855,0,0,0,.543.18,1.112,1.112,0,0,0,.785-.324,1.01,1.01,0,0,0,.347-.761,1.436,1.436,0,0,0-.911-.259,1.183,1.183,0,0,0-.709.2.616.616,0,0,0-.285.508Zm6.408-2.561-2.331,5.319h-.721l.865-1.861-1.533-3.459h.759l1.108,2.653h.015l1.078-2.653Z" transform="translate(-1010.104 -770.989)" fill="#fff"/>
  </g>
</svg>
