<svg xmlns="http://www.w3.org/2000/svg" width="24" height="24" viewBox="0 0 24 24">
  <g id="phonepe-logo" transform="translate(-0.012 -0.002)">
    <path id="Path_26195" data-name="Path 26195" d="M14.769.326a12,12,0,1,0,8.919,14.435A12,12,0,0,0,14.769.326Z" transform="translate(0 0)" fill="#5f259f"/>
    <path id="Path_26196" data-name="Path 26196" d="M42.4,22.533a.887.887,0,0,0-.872-.861H39.919l-3.69-4.231a1.37,1.37,0,0,0-1.41-.4l-1.279.4a.3.3,0,0,0-.135.469l4.03,3.819h-6.1a.318.318,0,0,0-.332.334v.67a.887.887,0,0,0,.872.871h.941v3.218c0,2.411,1.275,3.819,3.422,3.819a4.633,4.633,0,0,0,1.879-.336v2.148a1.059,1.059,0,0,0,1.074,1.072h.939a.434.434,0,0,0,.4-.4V23.539h1.539A.318.318,0,0,0,42.4,23.2Zm-4.3,5.761a3.207,3.207,0,0,1-1.343.267c-1.074,0-1.609-.535-1.609-1.742V23.605H38.1v4.686Z" transform="translate(-24.939 -13.661)" fill="#fff"/>
  </g>
</svg>
