<svg xmlns="http://www.w3.org/2000/svg" width="174.016" height="75.677" viewBox="0 0 174.016 75.677">
  <g id="Group_18276" data-name="Group 18276" transform="translate(10474.619 3344.677)">
    <g id="Group_18145" data-name="Group 18145" transform="translate(-10251.385 -4319.074)">
      <path id="Path_27525" data-name="Path 27525" d="M-103.166,1044.955c-.222-.428-.5-.907-.727-1.411a30.747,30.747,0,0,1-2.086-7.233,11.281,11.281,0,0,1-.051-3.975,6.463,6.463,0,0,1,5.179-5.384,11.84,11.84,0,0,1,6.869.42c1.118.37,2.2.841,3.287,1.259,0,.023.008-.01,0-.018a18.984,18.984,0,0,0-6.7-3.179,9.548,9.548,0,0,0-7.425,1.225,6.88,6.88,0,0,0-3.084,5.277,19.746,19.746,0,0,0,1.982,10.608c.222.487.473.962.732,1.486a4.433,4.433,0,0,0-3.392,1.9c-.869,1.239-.588,2.526.069,3.86h-.954c-.864,0-1.729.015-2.592-.012a.82.82,0,0,1-.545-.258,3.18,3.18,0,0,1,.221-4.511,4.729,4.729,0,0,1,2.1-1.22c.14-.041.277-.091.416-.14.8-.281.9-.464.768-1.305a73.41,73.41,0,0,0-3.6-13.187,71.473,71.473,0,0,1-3.076-10.7,38.339,38.339,0,0,1-.828-7.8,13.674,13.674,0,0,1,6.518-11.636.693.693,0,0,0,.393-.736c-.1-.739-.133-1.488-.278-2.217a5.021,5.021,0,0,0-2.72-3.67c-1.309-.683-2.581-1.442-3.833-2.224a6.857,6.857,0,0,1-2.348-2.392,4.867,4.867,0,0,1-.61-2.618,24.275,24.275,0,0,1,2.051-8.752.9.9,0,0,1,.082-.136c.761.46,1.492.94,2.258,1.357a9.545,9.545,0,0,0,3.577,1.135,5.145,5.145,0,0,0,4.36-1.533,8.558,8.558,0,0,0,1.124-1.344,3.065,3.065,0,0,1,2.079-1.332,10.92,10.92,0,0,1,4.486.186,16.382,16.382,0,0,1,7.636,3.652c.384.336.716.733,1.092,1.08a1.911,1.911,0,0,1,.548,1.919c-.482,2.543-1.011,5.081-1.394,7.64-.421,2.805-.716,5.63-1.031,8.449a.988.988,0,0,1-.639.948,13.033,13.033,0,0,1-5.316,1.364,5.9,5.9,0,0,1-6.168-5.115,11.958,11.958,0,0,1,1.728-8.5,22.449,22.449,0,0,1,6.881-6.924c.085-.057.172-.111.255-.17.022-.016.035-.045.026-.136-.417.179-.846.335-1.249.542a16.726,16.726,0,0,0-9.258,12.634,9.3,9.3,0,0,0,.249,4.435,6.513,6.513,0,0,0,5.35,4.63,14.7,14.7,0,0,0,7.559-.749c.137-.045.275-.093.468-.158.159.78.308,1.533.467,2.284a180.335,180.335,0,0,0,5.976,22.367,43.921,43.921,0,0,0,4.232,9.383,24.47,24.47,0,0,0,14.039,10.763,12.746,12.746,0,0,0,7.064.232,5.857,5.857,0,0,0,4.569-4.28A6.292,6.292,0,0,0-58,1034.907a4.311,4.311,0,0,0-5.244-.863c-.621.3-1.19.716-1.811,1.1a3.6,3.6,0,0,1,1.013-2.181,7.669,7.669,0,0,1,7.287-2.048,8.853,8.853,0,0,1,6.835,5.467c1.448,3.628.606,6.863-2.031,9.666a11.406,11.406,0,0,1-6.523,3.341,58.223,58.223,0,0,1-10.72.686q-15.993-.074-31.987-.113c-1.861-.007-3.72-.029-5.58-.029a.536.536,0,0,1-.542-.337,2.748,2.748,0,0,1,1.367-3.85C-105.027,1045.441-104.09,1045.215-103.166,1044.955Z" transform="translate(0 0)" fill="#fad338"/>
    </g>
    <path id="Path_27526" data-name="Path 27526" d="M-239.9,1047.988c-3.466-9.48,5.133-19.754,16.028-19.348,2.7.1,5.365,1.069,8.072,1.453,3.356.477,4.286,2.318,4.481,5.615.612,10.328,8.741,16.154,20.016,14.213-4.533-4-3.911-9.05-3.56-14.059a6.42,6.42,0,0,1,2.686-5.359c8.035-5.745,10.612-14.012,9.367-23.339-.634-4.753.176-8.114,4.352-10.549a5.246,5.246,0,0,0,2.911-5.24c-.358-2.631-3.055-1.521-4.627-2.259-.752-.354-2.221-.312-2.333-.726-1.841-6.839-10.62-6.988-12.681-13.429-6.214,5.43-10.608,11.783-12.539,19.877-1.026,4.3-4.577,6.17-9.009,6.62-1.407-3.569,4.544-5.55,1.569-9.23-2.018-2.5-4.119-4.788-7.064-6.173-7.331-3.444-16.543-.591-22.165,7.009a16.855,16.855,0,0,0-3.578,9.867,83.639,83.639,0,0,1-4.559,26.468,32.332,32.332,0,0,0-1.734,16.137c.753,5.026,4.838,5.993,7.719,4.4C-244.317,1048.7-241.986,1048.881-239.9,1047.988Z" transform="translate(-10220.004 -4319.637)" fill="#fad338"/>
  </g>
</svg>
