<svg id="Group_18013" data-name="Group 18013" xmlns="http://www.w3.org/2000/svg" width="137.838" height="107.172" viewBox="0 0 137.838 107.172">
  <path id="Path_27483" data-name="Path 27483" d="M1620.668,713.127a4.718,4.718,0,0,1,1.532-4.383c.6-.637,1.109-1.371,1.716-2.006a2.308,2.308,0,0,0,.6-2.031,19.055,19.055,0,0,1,1.25-9.406,4.03,4.03,0,0,0,.185-2.684,26.179,26.179,0,0,1,.316-13.735,9.034,9.034,0,0,1,.355-1.053c.139-.337.27-.744.756-.663.4.068.453.442.476.759.084,1.155.143,2.311.209,3.466a18.146,18.146,0,0,0,1.35,6.632,3.78,3.78,0,0,0,4.012,2.515c5.24-.269,10.454-.59,15.5-2.216a18.772,18.772,0,0,0,10.548-7.939A26.276,26.276,0,0,0,1663,669.937c.1-.688.2-1.376.277-2.066.06-.523.112-1.055.754-1.175.66-.124,1.036.3,1.322.8a13.854,13.854,0,0,1,1.709,4.532,2.006,2.006,0,0,0,1.729,1.84,6.753,6.753,0,0,1,5.008,3.812,1.791,1.791,0,0,0,1.184.893c1.656.6,3.294,1.253,4.969,1.793a1.437,1.437,0,0,1,1.113,1.653c-.083,2.24-1.754,3.986-4.66,4.6a38.247,38.247,0,0,1-4.817.628c-.907.074-1.188.431-1.149,1.311a30.849,30.849,0,0,1-4.066,16.793,5.4,5.4,0,0,0-.708,2.5q-.211,5-.52,9.991c-.054.9.052,1.52,1.159,1.62.953.086,1.309.834,1.266,1.7-.05,1.024-.878.916-1.56.91-4.9-.044-4.085.647-5.206-4.041-.723-3.019-1.458-6.036-2.1-9.073a1.528,1.528,0,0,0-1.81-1.4,126.545,126.545,0,0,1-17.469-1.008,1.477,1.477,0,0,0-1.49.744c-2.751,3.518-6.163,6-10.691,6.654a1.274,1.274,0,0,0-1.169,1q-.491,1.667-1.027,3.32c-.227.7,0,1.057.734,1.134a1.483,1.483,0,0,1,1.464,1.808c-.118,1.157-1.021.973-1.807.935-.092,0-.185-.008-.278-.008-4.087.017-4.066.016-4.166-4C1620.953,716.571,1620.793,715,1620.668,713.127Z" transform="translate(-1543.228 -615.02)" fill="#ffb870"/>
  <path id="Path_27484" data-name="Path 27484" d="M1442.427,584.412c-2.486,4.271-1.919,9.093-2.787,13.627-.374,1.953-.51,3.949-.783,5.922a7.288,7.288,0,0,0,4.381,8.166c1.973.921,4,1.731,6.01,2.563.981.405,1.8.783,1.047,2.1-.395.687-.048,1.443.189,2.153,1.412,4.213,2.8,8.436,4.232,12.641a13.266,13.266,0,0,1,.728,4.5c-.092,7,.075,14-.219,21-.148,3.516-2.306,5.771-5.509,5.633a4.92,4.92,0,0,1-4.655-4.068,36.606,36.606,0,0,1-.507-5.947c-.364-5.175-.619-10.359-.9-15.54a4.156,4.156,0,0,0-.468-1.584q-3.5-7.344-6.986-14.693a5.951,5.951,0,0,0-1.374-1.722,9.632,9.632,0,0,1-2.917-10.008c1.733-6.348,3.616-12.655,5.463-18.971a9.757,9.757,0,0,1,3.873-5.284,5.594,5.594,0,0,1,.708-.438A1.587,1.587,0,0,1,1442.427,584.412Z" transform="translate(-1406.796 -555.652)" fill="#ffb870"/>
  <path id="Path_27485" data-name="Path 27485" d="M1484.734,481.077a13.463,13.463,0,0,1,13.446,13.443,13.725,13.725,0,0,1-13.5,13.632,13.56,13.56,0,0,1-13.61-13.757A13.346,13.346,0,0,1,1484.734,481.077Z" transform="translate(-1435.344 -481.077)" fill="#ffb870"/>
  <path id="Path_27486" data-name="Path 27486" d="M1485.293,616.788a13.081,13.081,0,0,1-3.932-1.367c-4.683-2.017-9.389-3.982-14.066-6.015-2.817-1.225-4-3.474-3.595-6.613.663-5.193,1.286-10.392,2-15.578a5.429,5.429,0,0,1,5.682-4.686c3.265.008,5.784,1.847,6.3,4.581a4.688,4.688,0,0,1-.051,1.792c-.765,3.959-1.483,7.928-2.3,11.876a1.821,1.821,0,0,0,1.171,2.382c3.514,1.678,6.983,3.452,10.447,5.235a4.675,4.675,0,0,1,2.837,4.281C1489.813,615.156,1488.062,616.861,1485.293,616.788Z" transform="translate(-1429.97 -554.293)" fill="#ffb870"/>
  <path id="Path_27487" data-name="Path 27487" d="M1348.356,733.824c-2.808.02-4.93-1.478-5.479-3.64a5.168,5.168,0,0,1,2.954-6.108c2.715-1.289,5.537-2.354,8.318-3.5,2.1-.866,4.194-1.736,6.311-2.551a2.918,2.918,0,0,0,1.858-1.876c1.182-3.265,2.452-6.5,3.7-9.739.146-.378.165-.93.6-1.035.5-.12.569.505.864.762,3.455,3,4.717,7.305,6.714,11.177a2.172,2.172,0,0,1,.025,2.1c-.694,1.464-1.361,2.943-1.981,4.44a6.329,6.329,0,0,1-3.934,3.7c-6.232,2.09-12.5,4.07-18.762,6.075A6.352,6.352,0,0,1,1348.356,733.824Z" transform="translate(-1342.701 -642.937)" fill="#ffb870"/>
  <path id="Path_27488" data-name="Path 27488" d="M1655.9,829.863c-3.147.122-3.22.053-3.25-3.357a9.853,9.853,0,0,0-.054-2.215c-.356-1.451.2-2.1,1.571-2.483a13.448,13.448,0,0,0,7.114-5.059,1.846,1.846,0,0,1,1.9-.814c1.375.177,2.764.252,4.146.383.355.034.831-.045.96.385.12.4-.289.642-.526.916a15.767,15.767,0,0,1-8.45,5.035,3.694,3.694,0,0,0-2.813,3.571.779.779,0,0,0,.713.869c1.122.181,1.861.751,1.615,1.962s-1.3.727-2.069.8C1656.572,829.878,1656.385,829.863,1655.9,829.863Z" transform="translate(-1566.272 -722.722)" fill="#ffb870"/>
  <path id="Path_27489" data-name="Path 27489" d="M1668.417,722.326c-5.426-.2-10.089-.446-14.726-1.054a1.824,1.824,0,0,1-1.535-2.413c.234-1.247,1.2-.73,1.888-.647a130.217,130.217,0,0,0,23.122.806c.394-.023.919-.233,1.137.222.238.493-.315.7-.595.963a6.574,6.574,0,0,1-5.333,2.15A37.386,37.386,0,0,0,1668.417,722.326Z" transform="translate(-1565.99 -652.087)" fill="#ffb870"/>
  <path id="Path_27490" data-name="Path 27490" d="M1579.89,701.061c-.065,1.887-.3,2.05-2.088,1.672a99.574,99.574,0,0,1-17.4-5.263c-.7-.29-1.6-.416-.985-1.615.487-.958.594-1.981,2.2-1.283a89.279,89.279,0,0,0,17.122,5.219C1579.53,699.961,1580.057,700.217,1579.89,701.061Z" transform="translate(-1498.953 -634.987)" fill="#ffb870"/>
  <path id="Path_27491" data-name="Path 27491" d="M1424.84,604.61a2.46,2.46,0,0,1-.233,1.614q-2,7-4.037,13.981c-.111.385-.083.942-.553,1.024s-.619-.476-.864-.789a10.755,10.755,0,0,1-1.682-2.7,4.892,4.892,0,0,1,.613-4.993c2.016-2.646,4.1-5.237,6.161-7.85A.637.637,0,0,1,1424.84,604.61Z" transform="translate(-1396.364 -570.227)" fill="#ffb870"/>
  <path id="Path_27492" data-name="Path 27492" d="M1743.507,832.088a1.455,1.455,0,0,1-1.716-1.116c-1.154-3.56-2.306-7.12-3.494-10.669-.314-.939-.049-1.256.92-1.237,3.33.063,2.635-.244,3.329,2.578.74,3,1.39,6.031,2.136,9.035C1744.968,831.831,1744.582,832.243,1743.507,832.088Z" transform="translate(-1628.106 -724.998)" fill="#ffb870"/>
</svg>
