<svg id="Group_17846" data-name="Group 17846" xmlns="http://www.w3.org/2000/svg" width="136.855" height="143.086" viewBox="0 0 136.855 143.086">
  <path id="Path_26220" data-name="Path 26220" d="M-402.663,348.333a5.045,5.045,0,0,0,5.045,5.046h126.766a5.045,5.045,0,0,0,5.045-5.046v-78.2H-402.663Z" transform="translate(402.663 -210.292)" fill="#ffbf4d"/>
  <path id="Path_26221" data-name="Path 26221" d="M-402.663,243.432l68.428-53.037,68.428,53.037Z" transform="translate(402.663 -183.595)" fill="#ff813b"/>
  <path id="Path_26222" data-name="Path 26222" d="M-265.808,270.13H-402.663L-354,306.893h39.534Z" transform="translate(402.663 -210.292)" fill="#d36a2f"/>
  <path id="Path_26223" data-name="Path 26223" d="M-397.618,373.317h126.766a5.045,5.045,0,0,0,5.045-5.046l-48.661-41.44H-354l-48.66,41.44A5.045,5.045,0,0,0-397.618,373.317Z" transform="translate(402.663 -230.231)" fill="#deac4a"/>
  <path id="Path_26224" data-name="Path 26224" d="M-288.329,212.609h-93.3v47.6l35.026,26.462h39.534l35.026-26.462V228.873h-16.281Z" transform="translate(395.269 -190.066)" fill="#f9f9f9"/>
  <path id="Path_26225" data-name="Path 26225" d="M-237.726,228.873h16.281l-16.281-16.264Z" transform="translate(344.665 -190.066)" fill="#d8d9da"/>
  <path id="Path_26227" data-name="Path 26227" d="M-402.663,177.84v59.838L-354,274.441h39.534l48.661-36.763V177.84Z" transform="translate(402.663 -177.84)" fill="none"/>
  <g id="Group_17845" data-name="Group 17845" transform="translate(36.64 26.598)">
    <circle id="Ellipse_359" data-name="Ellipse 359" cx="24.329" cy="24.329" r="24.329" transform="matrix(0.924, -0.383, 0.383, 0.924, 0, 18.621)" fill="none" stroke="#ff813b" stroke-width="1"/>
    <path id="Path_26228" data-name="Path 26228" d="M-272.795,245.8a24.329,24.329,0,0,0-24.329-24.329v48.658A24.329,24.329,0,0,0-272.795,245.8Z" transform="translate(328.912 -214.01)" fill="#fff" opacity="0.5" style="mix-blend-mode: multiply;isolation: isolate"/>
    <path id="Path_26229" data-name="Path 26229" d="M-311,255.843l7.843,7.725,14.024-17.058" transform="translate(333.79 -222.816)" fill="none" stroke="#ff813b" stroke-miterlimit="10" stroke-width="3"/>
  </g>
</svg>
