<svg xmlns="http://www.w3.org/2000/svg" width="153.267" height="47.306" viewBox="0 0 153.267 47.306">
  <g id="Group_18393" data-name="Group 18393" transform="translate(0.5 0.5)">
    <g id="Group_18346" data-name="Group 18346" transform="translate(0 0)">
      <g id="Group_18309" data-name="Group 18309">
        <g id="Group_18308" data-name="Group 18308">
          <rect id="Rectangle_6261" data-name="Rectangle 6261" width="152.267" height="46.306" rx="5" stroke="#707070" stroke-width="1"/>
        </g>
      </g>
      <g id="Group_18336" data-name="Group 18336" transform="translate(40.786 7.623)">
        <g id="Group_18324" data-name="Group 18324" transform="translate(0.881)">
          <g id="Group_18310" data-name="Group 18310" transform="translate(0 0.434)">
            <path id="Path_29984" data-name="Path 29984" d="M959.578,304.361h-4.2l-.92,2.036h-.569l3.329-7.236h.527l3.329,7.236h-.569Zm-.2-.444-1.9-4.176-1.892,4.176Z" transform="translate(-953.892 -299.161)" fill="#fff"/>
          </g>
          <g id="Group_18311" data-name="Group 18311" transform="translate(6.998 2.274)">
            <path id="Path_29985" data-name="Path 29985" d="M1070.176,328.316l-2.44,5.4h-.527l-2.429-5.4h.548l2.15,4.828,2.171-4.828Z" transform="translate(-1064.78 -328.316)" fill="#fff"/>
          </g>
          <g id="Group_18312" data-name="Group 18312" transform="translate(12.87 2.233)">
            <path id="Path_29986" data-name="Path 29986" d="M1161.661,328.173a1.981,1.981,0,0,1,.537,1.5V333.1h-.5v-.961a1.8,1.8,0,0,1-.755.739,2.5,2.5,0,0,1-1.189.264,2.19,2.19,0,0,1-1.421-.424,1.466,1.466,0,0,1-.041-2.207,2.309,2.309,0,0,1,1.535-.419h1.85v-.434a1.52,1.52,0,0,0-.408-1.147,1.658,1.658,0,0,0-1.194-.393,2.876,2.876,0,0,0-1.028.186,2.577,2.577,0,0,0-.832.5l-.259-.372a2.87,2.87,0,0,1,.972-.563,3.529,3.529,0,0,1,1.189-.2A2.149,2.149,0,0,1,1161.661,328.173Zm-.687,4.233a1.888,1.888,0,0,0,.708-.9v-1.013h-1.84a1.832,1.832,0,0,0-1.153.289.97.97,0,0,0-.357.8,1,1,0,0,0,.393.832,1.766,1.766,0,0,0,1.106.3A2.03,2.03,0,0,0,1160.973,332.406Z" transform="translate(-1157.815 -327.661)" fill="#fff"/>
          </g>
          <g id="Group_18313" data-name="Group 18313" transform="translate(19.217 0.124)">
            <path id="Path_29987" data-name="Path 29987" d="M1258.507,294.965a.391.391,0,0,1-.124-.295.423.423,0,0,1,.424-.424.418.418,0,0,1,.3.119.391.391,0,0,1,.124.295.423.423,0,0,1-.424.424A.417.417,0,0,1,1258.507,294.965Zm.041,1.432h.517v5.4h-.517Z" transform="translate(-1258.383 -294.247)" fill="#fff"/>
          </g>
          <g id="Group_18314" data-name="Group 18314" transform="translate(22.081)">
            <path id="Path_29988" data-name="Path 29988" d="M1303.751,292.281h.517v7.67h-.517Z" transform="translate(-1303.751 -292.281)" fill="#fff"/>
          </g>
          <g id="Group_18315" data-name="Group 18315" transform="translate(24.293 2.233)">
            <path id="Path_29989" data-name="Path 29989" d="M1342.646,328.173a1.981,1.981,0,0,1,.537,1.5V333.1h-.5v-.961a1.8,1.8,0,0,1-.755.739,2.5,2.5,0,0,1-1.189.264,2.19,2.19,0,0,1-1.421-.424,1.466,1.466,0,0,1-.041-2.207,2.309,2.309,0,0,1,1.535-.419h1.85v-.434a1.52,1.52,0,0,0-.408-1.147,1.657,1.657,0,0,0-1.194-.393,2.878,2.878,0,0,0-1.029.186,2.579,2.579,0,0,0-.832.5l-.259-.372a2.87,2.87,0,0,1,.972-.563,3.53,3.53,0,0,1,1.189-.2A2.148,2.148,0,0,1,1342.646,328.173Zm-.687,4.233a1.887,1.887,0,0,0,.708-.9v-1.013h-1.84a1.832,1.832,0,0,0-1.153.289.97.97,0,0,0-.357.8,1,1,0,0,0,.393.832,1.767,1.767,0,0,0,1.106.3A2.03,2.03,0,0,0,1341.958,332.406Z" transform="translate(-1338.8 -327.661)" fill="#fff"/>
          </g>
          <g id="Group_18316" data-name="Group 18316" transform="translate(30.805)">
            <path id="Path_29990" data-name="Path 29990" d="M1446.061,294.86a2.471,2.471,0,0,1,.956.972,2.886,2.886,0,0,1,.346,1.421,2.855,2.855,0,0,1-.346,1.416,2.516,2.516,0,0,1-.956.972,2.683,2.683,0,0,1-1.365.351,2.514,2.514,0,0,1-1.308-.346,2.353,2.353,0,0,1-.9-.966v1.271h-.5v-7.67h.517v3.5a2.328,2.328,0,0,1,.9-.936,2.528,2.528,0,0,1,1.292-.336A2.715,2.715,0,0,1,1446.061,294.86Zm-.279,4.378a2.065,2.065,0,0,0,.781-.806,2.587,2.587,0,0,0,0-2.357,2.068,2.068,0,0,0-.781-.806,2.175,2.175,0,0,0-1.116-.289,2.147,2.147,0,0,0-1.111.289,2.078,2.078,0,0,0-.775.806,2.584,2.584,0,0,0,0,2.357,2.075,2.075,0,0,0,.775.806,2.146,2.146,0,0,0,1.111.289A2.174,2.174,0,0,0,1445.782,299.238Z" transform="translate(-1441.988 -292.281)" fill="#fff"/>
          </g>
          <g id="Group_18317" data-name="Group 18317" transform="translate(37.783)">
            <path id="Path_29991" data-name="Path 29991" d="M1552.547,292.281h.517v7.67h-.517Z" transform="translate(-1552.547 -292.281)" fill="#fff"/>
          </g>
          <g id="Group_18318" data-name="Group 18318" transform="translate(39.891 2.233)">
            <path id="Path_29992" data-name="Path 29992" d="M1591.105,330.524h-4.642a2.254,2.254,0,0,0,.321,1.122,2.05,2.05,0,0,0,.811.76,2.44,2.44,0,0,0,1.153.269,2.469,2.469,0,0,0,.977-.191,1.9,1.9,0,0,0,.749-.563l.3.341a2.3,2.3,0,0,1-.884.651,3.077,3.077,0,0,1-2.589-.124,2.548,2.548,0,0,1-.987-.972,2.791,2.791,0,0,1-.357-1.416,2.934,2.934,0,0,1,.336-1.411,2.478,2.478,0,0,1,.925-.977,2.674,2.674,0,0,1,2.641-.005,2.463,2.463,0,0,1,.92.966,2.9,2.9,0,0,1,.336,1.406Zm-3.587-2.155a1.932,1.932,0,0,0-.729.713,2.322,2.322,0,0,0-.315,1.039h4.135a2.162,2.162,0,0,0-.31-1.034,2.007,2.007,0,0,0-1.757-.972A2.068,2.068,0,0,0,1587.518,328.369Z" transform="translate(-1585.957 -327.661)" fill="#fff"/>
          </g>
          <g id="Group_18319" data-name="Group 18319" transform="translate(48.719 2.233)">
            <path id="Path_29993" data-name="Path 29993" d="M1727.15,332.788a2.53,2.53,0,0,1-.967-.977,3.008,3.008,0,0,1,0-2.822,2.532,2.532,0,0,1,.967-.977,2.885,2.885,0,0,1,2.76,0,2.533,2.533,0,0,1,.967.977,3.008,3.008,0,0,1,0,2.822,2.531,2.531,0,0,1-.967.977,2.885,2.885,0,0,1-2.76,0Zm2.491-.4a2.079,2.079,0,0,0,.775-.806,2.585,2.585,0,0,0,0-2.357,2.081,2.081,0,0,0-.775-.806,2.278,2.278,0,0,0-2.223,0,2.08,2.08,0,0,0-.775.806,2.586,2.586,0,0,0,0,2.357,2.077,2.077,0,0,0,.775.806,2.278,2.278,0,0,0,2.223,0Z" transform="translate(-1725.832 -327.661)" fill="#fff"/>
          </g>
          <g id="Group_18320" data-name="Group 18320" transform="translate(55.718 2.233)">
            <path id="Path_29994" data-name="Path 29994" d="M1840.958,328.25a2.294,2.294,0,0,1,.589,1.7V333.1h-.517v-3.112a1.915,1.915,0,0,0-.46-1.385,1.707,1.707,0,0,0-1.287-.476,1.985,1.985,0,0,0-1.5.569,2.111,2.111,0,0,0-.548,1.53V333.1h-.517v-5.4h.5v1.168a2.053,2.053,0,0,1,.832-.889,2.564,2.564,0,0,1,1.308-.32A2.165,2.165,0,0,1,1840.958,328.25Z" transform="translate(-1836.72 -327.661)" fill="#fff"/>
          </g>
          <g id="Group_18321" data-name="Group 18321" transform="translate(64.442 1.096)">
            <path id="Path_29995" data-name="Path 29995" d="M1978.522,315.877a1.3,1.3,0,0,1-.491.284,1.936,1.936,0,0,1-.615.1,1.457,1.457,0,0,1-1.086-.388,1.472,1.472,0,0,1-.382-1.08v-3.525h-.992v-.444h.992v-1.178h.517v1.178h1.716v.444h-1.716v3.473a1.14,1.14,0,0,0,.253.8.971.971,0,0,0,.749.274,1.2,1.2,0,0,0,.837-.3Z" transform="translate(-1974.956 -309.644)" fill="#fff"/>
          </g>
          <g id="Group_18322" data-name="Group 18322" transform="translate(69.446)">
            <path id="Path_29996" data-name="Path 29996" d="M2058.469,295.1a2.3,2.3,0,0,1,.589,1.7v3.153h-.517V296.84a1.914,1.914,0,0,0-.46-1.385,1.707,1.707,0,0,0-1.287-.476,1.983,1.983,0,0,0-1.5.569,2.111,2.111,0,0,0-.548,1.53v2.874h-.517v-7.67h.517v3.4a1.979,1.979,0,0,1,.827-.863,2.616,2.616,0,0,1,1.292-.3A2.166,2.166,0,0,1,2058.469,295.1Z" transform="translate(-2054.231 -292.281)" fill="#fff"/>
          </g>
          <g id="Group_18323" data-name="Group 18323" transform="translate(75.824 2.233)">
            <path id="Path_29997" data-name="Path 29997" d="M2160.435,330.524h-4.642a2.258,2.258,0,0,0,.321,1.122,2.051,2.051,0,0,0,.812.76,2.439,2.439,0,0,0,1.153.269,2.468,2.468,0,0,0,.977-.191,1.9,1.9,0,0,0,.749-.563l.3.341a2.3,2.3,0,0,1-.884.651,3.078,3.078,0,0,1-2.59-.124,2.547,2.547,0,0,1-.987-.972,2.789,2.789,0,0,1-.357-1.416,2.933,2.933,0,0,1,.336-1.411,2.478,2.478,0,0,1,.925-.977,2.674,2.674,0,0,1,2.641-.005,2.463,2.463,0,0,1,.92.966,2.906,2.906,0,0,1,.336,1.406Zm-3.587-2.155a1.932,1.932,0,0,0-.729.713,2.322,2.322,0,0,0-.315,1.039h4.135a2.164,2.164,0,0,0-.31-1.034,2.007,2.007,0,0,0-1.757-.972A2.068,2.068,0,0,0,2156.848,328.369Z" transform="translate(-2155.287 -327.661)" fill="#fff"/>
          </g>
        </g>
        <g id="Group_18335" data-name="Group 18335" transform="translate(0 13.719)">
          <g id="Group_18325" data-name="Group 18325" transform="translate(0 0.552)">
            <path id="Path_29998" data-name="Path 29998" d="M949.049,524.483h2.124V529.3A6.749,6.749,0,0,1,949,530.439a8.351,8.351,0,0,1-2.555.4,6.891,6.891,0,0,1-3.332-.8,5.961,5.961,0,0,1-2.331-2.219,6.452,6.452,0,0,1,0-6.388,5.947,5.947,0,0,1,2.339-2.218,6.976,6.976,0,0,1,3.358-.8,7.336,7.336,0,0,1,2.762.5,5.425,5.425,0,0,1,2.089,1.468l-1.416,1.381a4.542,4.542,0,0,0-3.332-1.381,4.708,4.708,0,0,0-2.27.535,3.9,3.9,0,0,0-1.554,1.5,4.32,4.32,0,0,0-.561,2.21,4.251,4.251,0,0,0,.561,2.175,4.019,4.019,0,0,0,1.554,1.519,4.551,4.551,0,0,0,2.253.552,4.861,4.861,0,0,0,2.486-.622Z" transform="translate(-939.933 -518.406)" fill="#fff"/>
          </g>
          <g id="Group_18326" data-name="Group 18326" transform="translate(13.224 3.487)">
            <path id="Path_29999" data-name="Path 29999" d="M1151.85,573.749a4.4,4.4,0,0,1-1.752-1.683,5.034,5.034,0,0,1,0-4.877,4.425,4.425,0,0,1,1.752-1.675,5.6,5.6,0,0,1,5.058,0,4.427,4.427,0,0,1,1.752,1.675,5.034,5.034,0,0,1,0,4.877,4.405,4.405,0,0,1-1.752,1.683,5.595,5.595,0,0,1-5.058,0Zm4.489-2.037a3.2,3.2,0,0,0,0-4.178,2.637,2.637,0,0,0-1.968-.794,2.609,2.609,0,0,0-1.959.794,3.224,3.224,0,0,0,0,4.178,2.608,2.608,0,0,0,1.959.794A2.636,2.636,0,0,0,1156.339,571.712Z" transform="translate(-1149.468 -564.91)" fill="#fff"/>
          </g>
          <g id="Group_18327" data-name="Group 18327" transform="translate(24.36 3.487)">
            <path id="Path_30000" data-name="Path 30000" d="M1328.286,573.749a4.4,4.4,0,0,1-1.752-1.683,5.033,5.033,0,0,1,0-4.877,4.423,4.423,0,0,1,1.752-1.675,5.6,5.6,0,0,1,5.058,0,4.427,4.427,0,0,1,1.752,1.675,5.033,5.033,0,0,1,0,4.877,4.405,4.405,0,0,1-1.752,1.683,5.595,5.595,0,0,1-5.058,0Zm4.489-2.037a3.2,3.2,0,0,0,0-4.178,2.637,2.637,0,0,0-1.968-.794,2.609,2.609,0,0,0-1.959.794,3.224,3.224,0,0,0,0,4.178,2.608,2.608,0,0,0,1.959.794A2.636,2.636,0,0,0,1332.775,571.712Z" transform="translate(-1325.904 -564.91)" fill="#fff"/>
          </g>
          <g id="Group_18328" data-name="Group 18328" transform="translate(35.495 3.487)">
            <path id="Path_30001" data-name="Path 30001" d="M1512.25,565.014v7.821q0,4.869-4.972,4.869a9.226,9.226,0,0,1-2.521-.337,5.35,5.35,0,0,1-1.968-.976l.967-1.623a4.62,4.62,0,0,0,1.528.8,5.993,5.993,0,0,0,1.873.3,3.093,3.093,0,0,0,2.227-.691,2.823,2.823,0,0,0,.708-2.106v-.483a3.546,3.546,0,0,1-1.347.915,4.747,4.747,0,0,1-1.744.311,5,5,0,0,1-2.374-.561,4.211,4.211,0,0,1-1.674-1.58,4.721,4.721,0,0,1,0-4.653,4.173,4.173,0,0,1,1.674-1.562,5.066,5.066,0,0,1,2.374-.552,4.869,4.869,0,0,1,1.822.328,3.365,3.365,0,0,1,1.373,1v-1.226Zm-2.909,6.241a2.491,2.491,0,0,0,.786-1.908,2.444,2.444,0,0,0-.786-1.882,3.176,3.176,0,0,0-4.04,0,2.443,2.443,0,0,0-.786,1.882,2.49,2.49,0,0,0,.786,1.908,3.147,3.147,0,0,0,4.04,0Z" transform="translate(-1502.34 -564.91)" fill="#fff"/>
          </g>
          <g id="Group_18329" data-name="Group 18329" transform="translate(48.236)">
            <path id="Path_30002" data-name="Path 30002" d="M1704.214,509.653h2.158v12.81h-2.158Z" transform="translate(-1704.214 -509.653)" fill="#fff"/>
          </g>
          <g id="Group_18330" data-name="Group 18330" transform="translate(52.465 3.487)">
            <path id="Path_30003" data-name="Path 30003" d="M1780.621,570.314h-7.234a2.506,2.506,0,0,0,.993,1.614,3.254,3.254,0,0,0,1.994.6,3.36,3.36,0,0,0,2.5-1l1.157,1.329a3.9,3.9,0,0,1-1.571,1.122,6.226,6.226,0,0,1-4.817-.224,4.351,4.351,0,0,1-1.787-1.683,4.752,4.752,0,0,1-.63-2.443,4.824,4.824,0,0,1,.613-2.426,4.35,4.35,0,0,1,1.7-1.683,4.963,4.963,0,0,1,2.451-.6,4.839,4.839,0,0,1,2.409.6,4.221,4.221,0,0,1,1.657,1.675,5.081,5.081,0,0,1,.6,2.495Q1780.656,569.9,1780.621,570.314Zm-6.379-3.064a2.579,2.579,0,0,0-.872,1.631h5.231a2.547,2.547,0,0,0-.846-1.623,2.574,2.574,0,0,0-1.761-.621A2.6,2.6,0,0,0,1774.242,567.249Z" transform="translate(-1771.229 -564.91)" fill="#fff"/>
          </g>
          <g id="Group_18331" data-name="Group 18331" transform="translate(68.936 0.725)">
            <path id="Path_30004" data-name="Path 30004" d="M2039.9,521.66a3.98,3.98,0,0,1,1.787,1.485,4.536,4.536,0,0,1,0,4.584,3.959,3.959,0,0,1-1.787,1.493,6.691,6.691,0,0,1-2.737.518h-2.728v3.487h-2.245V521.142h4.972A6.689,6.689,0,0,1,2039.9,521.66Zm-.613,5.559a2.461,2.461,0,0,0,0-3.556,3.448,3.448,0,0,0-2.227-.622h-2.624v4.8h2.624A3.448,3.448,0,0,0,2039.285,527.219Z" transform="translate(-2032.19 -521.142)" fill="#fff"/>
          </g>
          <g id="Group_18332" data-name="Group 18332" transform="translate(81.262)">
            <path id="Path_30005" data-name="Path 30005" d="M2227.5,509.653h2.158v12.81H2227.5Z" transform="translate(-2227.503 -509.653)" fill="#fff"/>
          </g>
          <g id="Group_18333" data-name="Group 18333" transform="translate(85.595 3.487)">
            <path id="Path_30006" data-name="Path 30006" d="M2303.454,565.885a3.771,3.771,0,0,1,1.079,2.944v5.4H2302.5v-1.122a2.513,2.513,0,0,1-1.131.924,4.423,4.423,0,0,1-1.77.319,4.338,4.338,0,0,1-1.813-.354,2.8,2.8,0,0,1-1.2-.984,2.5,2.5,0,0,1-.423-1.424,2.441,2.441,0,0,1,.924-1.994,4.587,4.587,0,0,1,2.909-.751h2.382v-.138a1.89,1.89,0,0,0-.578-1.485,2.5,2.5,0,0,0-1.718-.518,4.962,4.962,0,0,0-1.528.242,3.76,3.76,0,0,0-1.269.673l-.846-1.571a5.244,5.244,0,0,1,1.744-.846,7.764,7.764,0,0,1,2.158-.293A4.5,4.5,0,0,1,2303.454,565.885Zm-1.968,6.526a2.019,2.019,0,0,0,.889-1.062v-1.07h-2.227q-1.865,0-1.865,1.226a1.1,1.1,0,0,0,.466.932,2.135,2.135,0,0,0,1.295.345A2.784,2.784,0,0,0,2301.486,572.411Z" transform="translate(-2296.16 -564.91)" fill="#fff"/>
          </g>
          <g id="Group_18334" data-name="Group 18334" transform="translate(94.849 3.591)">
            <path id="Path_30007" data-name="Path 30007" d="M2453.123,566.551l-4.316,9.962a4.639,4.639,0,0,1-1.468,2.115,3.516,3.516,0,0,1-2.089.613,4.293,4.293,0,0,1-1.364-.224,3.019,3.019,0,0,1-1.1-.621l.863-1.588a2.347,2.347,0,0,0,.734.466,2.246,2.246,0,0,0,.854.173,1.472,1.472,0,0,0,.941-.293,2.6,2.6,0,0,0,.682-.984l.156-.362-4.023-9.254h2.244l2.9,6.82,2.918-6.82Z" transform="translate(-2442.782 -566.551)" fill="#fff"/>
          </g>
        </g>
      </g>
      <g id="Group_18345" data-name="Group 18345" transform="translate(8.529 7.79)">
        <g id="Group_18338" data-name="Group 18338" transform="translate(17.537 11.424)">
          <g id="Group_18337" data-name="Group 18337">
            <path id="Path_30008" data-name="Path 30008" d="M717.274,479.287l-5.8-3.348-4.771,4.612,4.361,4.215,6.212-3.586a1.094,1.094,0,0,0,0-1.894Z" transform="translate(-706.701 -475.939)" fill="#fcc602"/>
          </g>
        </g>
        <g id="Group_18340" data-name="Group 18340" transform="translate(0.949)">
          <g id="Group_18339" data-name="Group 18339">
            <path id="Path_30009" data-name="Path 30009" d="M464.24,305.792l-6.384-3.685-13.991-7.17,15.8,15.276Z" transform="translate(-443.865 -294.937)" fill="#63b253"/>
          </g>
        </g>
        <g id="Group_18342" data-name="Group 18342" transform="translate(1.181 16.796)">
          <g id="Group_18341" data-name="Group 18341">
            <path id="Path_30010" data-name="Path 30010" d="M447.543,576.116l13.783-7.593,5.95-3.434-4.162-4.024Z" transform="translate(-447.543 -561.066)" fill="#e71b39"/>
          </g>
        </g>
        <g id="Group_18344" data-name="Group 18344" transform="translate(0 0.618)">
          <g id="Group_18343" data-name="Group 18343">
            <path id="Path_30011" data-name="Path 30011" d="M428.85,304.73l-.015,30.85L444.8,320.148Z" transform="translate(-428.835 -304.73)" fill="#29beee"/>
          </g>
        </g>
      </g>
    </g>
  </g>
</svg>
