<svg id="Group_18010" data-name="Group 18010" xmlns="http://www.w3.org/2000/svg" width="82.691" height="105.836" viewBox="0 0 82.691 105.836">
  <path id="Path_27477" data-name="Path 27477" d="M792.688,444.686c-.706-.421-1.417-.834-2.116-1.267-.453-.281-.735-.682-.449-1.21.311-.575.834-.551,1.338-.28.757.405,1.5.838,2.239,1.277.389.232.679.243.941-.194s.093-.688-.3-.9c-.541-.3-1.089-.593-1.6-.937-.591-.4-1.614-.688-1.039-1.657.531-.9,1.272-.209,1.884.1.582.294,1.145.63,1.7.971.351.215.6.257.835-.17.211-.386.3-.66-.181-.919-.785-.425-1.55-.89-2.313-1.356-.482-.295-.819-.7-.464-1.275.337-.548.843-.523,1.353-.237.75.42,1.5.838,2.235,1.285.393.24.661.266.908-.2.233-.441.119-.691-.287-.915-.632-.348-1.252-.719-1.873-1.088-.564-.336-1.293-.684-.841-1.483.491-.868,1.175-.36,1.775-.022.3.169.6.341.887.527.781.5,1.47,1.033,2.321-.046.456-.577,1.286-.412,1.88.072a1.506,1.506,0,0,1,.494,1.934c-.353.744-.776,1.455-1.181,2.173-1.352,2.4-2.652,4.822-4.088,7.166a5.558,5.558,0,0,0-.814,4,25.077,25.077,0,0,0,1.436,6.1c1.208,2.848,2.813,3.58,5.754,2.654a18.1,18.1,0,0,0,6.476-3.744,6.7,6.7,0,0,1,4.635-1.638q8.2-.025,16.4-.039a3.86,3.86,0,0,1,1.882.472,26.971,26.971,0,0,1,8.139,6.4c4.782,5.816,4.078,12.388-1.836,17.44a36.225,36.225,0,0,1-8.395,5.191,3.667,3.667,0,0,1-3.307-6.546c1.378-.774,2.8-1.462,4.172-2.252a14.981,14.981,0,0,0,3.772-3.016c1.946-2.2,1.728-4.609-.687-6.62,0,1.832-.037,3.571.016,5.307a2.237,2.237,0,0,1-.915,1.944,30.506,30.506,0,0,1-6.323,3.857,4.352,4.352,0,0,0,2.949,8.178,18.745,18.745,0,0,0,3.337-1.612c.6-.33.958-.35.939.5-.122,5.565,1.118,10.989,1.754,16.474.708,6.1,1.587,12.189,2.392,18.282q.85,6.434,1.7,12.868a5.616,5.616,0,1,1-11.105,1.687c-.609-4.214-1.024-8.457-1.714-12.656a76.135,76.135,0,0,1-.594-11.615c-.009-.9.295-1.243,1.188-1.2a3.489,3.489,0,0,0,2.2-.355c1.756-1.161,1.188-2.937,1.113-4.521-.053-1.109-1.061-1.833-2.428-1.991a11.6,11.6,0,0,0-2.779.031c-.851.107-1.336-.137-1.444-1.1-.247-2.217-.6-4.422-.876-6.637-.074-.6-.316-.83-.919-.817-2.725.06-2.112-.333-2.51,2.181-.268,1.7-.458,3.4-.665,5.107-.093.762-.319,1.248-1.258,1.223-2.091-.057-4.185-.015-6.277-.006-.824,0-1.65-.006-2.472.045-1.427.088-1.565-.056-1.37-1.451.336-2.414.559-4.848.992-7.245a70.1,70.1,0,0,0,.634-12.541c0-1.823.611-2.514,2.42-2.81a30.735,30.735,0,0,0,3.38-.323,3.519,3.519,0,0,0,2.66-3.063c.3-2.624-.437-3.751-3-4.447-1.192-.324-2.422-.507-3.613-.832-1.478-.4-1.767-.787-1.844-2.268-.027-.534-.121-.825-.711-.488-.8.454-.96-.083-1.031-.692a2.888,2.888,0,0,1,.665-2.007c.326-.469.818-.9.447-1.565a1.729,1.729,0,0,0-1.776-.8,5,5,0,0,0-4.69,4.644,2.948,2.948,0,0,1-3.4,2.714,10.552,10.552,0,0,1-7.351-4.667,14.822,14.822,0,0,1-1.795-3.471,1.77,1.77,0,0,0-1.28-1.3,1.435,1.435,0,0,1-.984-2.184c1.085-1.55.71-3.135.486-4.751-.228-1.636-.135-3.163,1.259-4.33A5.541,5.541,0,0,1,792.688,444.686Z" transform="translate(-761.113 -430.845)" fill="#5691e4"/>
  <path id="Path_27478" data-name="Path 27478" d="M693.323,755.764H725.2c2.607,0,3.895,2.148,2.7,4.518a2.193,2.193,0,0,1-2.062,1.123c-2.344.134-2.344.136-2.344,2.464q0,13.361,0,26.721c0,1.4-.005,1.406-1.436,1.409-.825,0-1.651-.012-2.476,0-.516,0-.76-.234-.751-.749.006-.344-.007-.688-.007-1.032q0-13.721,0-27.443c0-1.354,0-1.358-1.38-1.359q-24.038,0-48.077,0c-1.46,0-1.464,0-1.464,1.514q0,13.773,0,27.546c0,1.524-.009,1.525-1.552,1.527h-1.341c-1.874,0-1.875,0-1.875-1.929q0-13.618,0-27.237c0-1.416,0-1.416-1.434-1.424a9.107,9.107,0,0,1-.928-.014,4.047,4.047,0,0,1-1.006-.2c-1.112-.427-1.511-1.724-1.179-3.725a1.979,1.979,0,0,1,1.926-1.693c.376-.032.756-.016,1.134-.016Z" transform="translate(-658.477 -686.402)" fill="#5691e4"/>
  <path id="Path_27479" data-name="Path 27479" d="M686.645,609.98a11.985,11.985,0,0,1,1.71-7.1c.385-.669-.112-.758-.5-.946a21.536,21.536,0,0,1-7.849-6.535,7.872,7.872,0,0,1-.782-1.209,1.964,1.964,0,0,1,3.174-2.226,11.413,11.413,0,0,1,.894,1.131,17.786,17.786,0,0,0,8.378,6.1,1.706,1.706,0,0,0,1.474-.026,9.536,9.536,0,0,1,7.894-.257,20.509,20.509,0,0,0,6.473,1.59,12.2,12.2,0,0,0,3.359-.45,1.236,1.236,0,0,1,1.382.346,39.518,39.518,0,0,0,6.477,5.57,1.983,1.983,0,0,1,.786,1.794q.125,3.554.231,7.108c.075,2.4.172,4.807.215,7.211.041,2.275-1.513,3.312-3.586,2.411a2.01,2.01,0,0,1-1.069-1.554c-.537-2.343-1.1-4.68-1.6-7.031-.158-.745-.353-1.026-1.134-.623-2.385,1.228-4.795.841-7.2.028a45.111,45.111,0,0,1-8.485-4.2c-1.262-.748-1.452-.692-1.9.754a57.041,57.041,0,0,0-1.208,6.786A15.748,15.748,0,0,1,692.553,623a2.325,2.325,0,0,1-2,1.562c-1.064.037-1.6-.7-2.018-1.515a17.082,17.082,0,0,1-1.445-5.768A57.926,57.926,0,0,1,686.645,609.98Z" transform="translate(-674.779 -555.925)" fill="#5691e4"/>
  <path id="Path_27480" data-name="Path 27480" d="M866.869,809.491c.515-3.924,1.122-8.554,1.731-13.183.388-2.962.789-5.922,1.162-8.885.172-1.371.222-1.452,1.563-1.454,2.923,0,5.846.018,8.768-.011.9-.009,1.237.3,1.11,1.221q-1.32,9.644-2.6,19.294c-.228,1.7-.4,3.411-.691,5.1a5.592,5.592,0,0,1-6.357,4.565C868.735,815.757,866.627,813.114,866.869,809.491Z" transform="translate(-823.846 -710.366)" fill="#5691e4"/>
  <path id="Path_27481" data-name="Path 27481" d="M915.264,419.683a10.115,10.115,0,0,1,10.07,10.122,10.163,10.163,0,1,1-20.326-.065A10.14,10.14,0,0,1,915.264,419.683Z" transform="translate(-854.13 -419.683)" fill="#5691e4"/>
  <path id="Path_27482" data-name="Path 27482" d="M860.268,571.313a3.141,3.141,0,0,1-3.089,3.319,6.113,6.113,0,0,1-.824.025,5.613,5.613,0,0,0-5.289,2.723c-.208.314-.469.592-.706.886-1.4,1.745-1.4,1.749-3.232.352a50.437,50.437,0,0,1-5.221-4.665,1.919,1.919,0,0,1-.53-2.125c.767-2.6,1.9-4.94,4.26-6.478a.854.854,0,0,0,.385-.952,4.143,4.143,0,0,1,3.62-4.691c.475-.074,1.016-.162,1.349.268.384.494-.158.8-.379,1.148a3.143,3.143,0,0,0,.4,4.3,6.848,6.848,0,0,0,4.248,2.306,13.263,13.263,0,0,1,3.088.784A2.492,2.492,0,0,1,860.268,571.313Zm-8.13-1.99c-.022-.842-.671-1.526-1.324-1.433a1.285,1.285,0,0,0-1.246,1.37,1.311,1.311,0,0,0,1.32,1.289A1.266,1.266,0,0,0,852.138,569.323Z" transform="translate(-803.536 -530.76)" fill="#5691e4"/>
</svg>
