<svg xmlns="http://www.w3.org/2000/svg" width="22.486" height="19.304" viewBox="0 0 22.486 19.304">
  <path id="Path_27528" data-name="Path 27528" d="M13.244,4.6a7.123,7.123,0,0,1,9.266.238,5.948,5.948,0,0,1,.265,8.6L13.242,22.3,3.71,13.436a5.949,5.949,0,0,1,.265-8.6A7.126,7.126,0,0,1,13.244,4.6ZM20.918,6.31a4.748,4.748,0,0,0-6.172-.16L13.245,7.4l-1.5-1.25a4.749,4.749,0,0,0-6.177.161A3.963,3.963,0,0,0,5.35,12l7.892,7.342,7.892-7.341a3.964,3.964,0,0,0-.217-5.7Z" transform="translate(-2 -3)" opacity="0.25"/>
</svg>
