<svg xmlns="http://www.w3.org/2000/svg" width="14.408" height="23" viewBox="0 0 14.408 23">
  <g id="Group_15139" data-name="Group 15139" transform="translate(0)" opacity="0.5">
    <path id="Path_5190" data-name="Path 5190" d="M-214.792,204.12s-1.458.006-1.468,0c0,1.727,0,3.605,0,5.332a1.157,1.157,0,0,1-.61,1.05,1.385,1.385,0,0,1-.737.155h-4.687c-.509,0-1.017,0-1.526,0-.9,0-1.8.005-2.693,0a1.189,1.189,0,0,1-1.163-.792,1.759,1.759,0,0,1-.074-.6q0-8.673,0-17.346c0-.1,0-.21.007-.314a1.172,1.172,0,0,1,1.007-1.079,8.018,8.018,0,0,1,1.143-.017.154.154,0,0,1,.169.166c.008.135,0,.269.005.4a1.406,1.406,0,0,0,1.433,1.443c.576.011,1.152,0,1.728,0l.456-.005c.657.005,1.315.023,1.972-.006a1.349,1.349,0,0,0,1.232-1.095,3.5,3.5,0,0,0,.051-.714c0-.14.063-.2.2-.2.314,0,.628-.011.941.007a1.215,1.215,0,0,1,1.153,1.242c-.029,1.052-.009,2.106-.007,3.16,0,.123,0,9.21,0,9.21s1.453.014,1.468,0c0,.014.032-12.765.032-12.773a2.66,2.66,0,0,0-2.4-2.242c-1.605-.064-3.215-.012-4.823-.01h0c-1.592,0-3.185-.03-4.777.006a2.552,2.552,0,0,0-2.4,2.566q-.006,8.916,0,17.832a2.5,2.5,0,0,0,1.461,2.317,5.506,5.506,0,0,0,.778.257H-217c.016-.013.031-.036.049-.039a2.585,2.585,0,0,0,2.145-2.567C-214.8,207.616-214.792,204.12-214.792,204.12Z" transform="translate(229.167 -189.073)" fill="#505050" opacity="0.9"/>
    <path id="Path_5191" data-name="Path 5191" d="M-113.145,613.347a.692.692,0,0,0-.709.662.69.69,0,0,0,.659.686l1.35-.008c.454,0,.908.013,1.362,0a.635.635,0,0,0,.619-.658.651.651,0,0,0-.622-.684C-110.939,613.335-112.712,613.339-113.145,613.347Z" transform="translate(119.031 -594.293)" fill="#505050"/>
  </g>
</svg>
