<svg xmlns="http://www.w3.org/2000/svg" width="33.488" height="37.924" viewBox="0 0 33.488 37.924">
  <path id="notification_1_" data-name="notification (1)" d="M24.209,22.582a11.351,11.351,0,0,1-5.554-7.231l-1.347-5.035A8.779,8.779,0,0,0,9.129,3.8l-.5-1.88a2.589,2.589,0,0,0-5,1.34l.5,1.879A8.8,8.8,0,0,0,.3,14.873l1.347,5.035a11.916,11.916,0,0,1,.407,3.087,11.936,11.936,0,0,1-1.59,5.949,1.394,1.394,0,0,0,.1,1.572,1.411,1.411,0,0,0,1.492.509L9.5,29.031a3.621,3.621,0,0,0,6.924-1.854l7.446-1.995a1.414,1.414,0,0,0,1.047-1.38,1.4,1.4,0,0,0-.71-1.221ZM4.778,1.813a1.555,1.555,0,0,1,2.849.375l.437,1.635c-.049,0-.1.014-.146.019q-.245.025-.486.063c-.085.013-.171.027-.256.043q-.269.052-.532.117c-.039.01-.078.015-.117.026s-.063.021-.094.03q-.3.082-.585.184c-.052.018-.1.037-.151.055q-.3.112-.59.245l-.046.019L4.625,2.992a1.539,1.539,0,0,1,.153-1.179ZM15.412,27.45a2.591,2.591,0,0,1-4.9,1.312ZM23.6,24.183,1.784,30.025a.373.373,0,0,1-.4-.138.37.37,0,0,1-.026-.424,12.974,12.974,0,0,0,1.732-6.469,12.905,12.905,0,0,0-.443-3.356L1.3,14.6a7.775,7.775,0,0,1,3.67-8.773l.009,0a7.741,7.741,0,0,1,1.364-.586c.149-.049.294-.108.446-.148a7.889,7.889,0,0,1,1.6-.252c.114-.006.229-.013.343-.014h.08a7.758,7.758,0,0,1,7.494,5.759l1.347,5.035a13.036,13.036,0,0,0,6.039,7.858.363.363,0,0,1,.192.323.38.38,0,0,1-.284.38Zm0,0" transform="matrix(0.966, 0.259, -0.259, 0.966, 8.789, 0.699)" fill="none" stroke="#fff" stroke-width="1"/>
</svg>
