<svg xmlns="http://www.w3.org/2000/svg" width="222.714" height="87.207" viewBox="0 0 222.714 87.207">
  <g id="Group_17985" data-name="Group 17985" transform="translate(-27.938 -34.063)">
    <g id="Group_16904" data-name="Group 16904" transform="translate(20269 8657.094)">
      <path id="Path_21920" data-name="Path 21920" d="M-19746.283-11639.263h-8.7a5.269,5.269,0,0,1-5-5.159c-.082.084,0-25.814,0-25.814s-12.867-1.8-7.131-14.422c.916-2.386,15.244-14.259,15.244-14.259v-10.572s-.492-3.934,2.457-4.016h4.592s2.295,0,2.131,2.786c.01.512,0,2.846,0,2.846l12.232-12.237s4.859-5.221,9.9,0c0,.361,35.828,35.452,35.828,35.452s7.422,8.436-4.871,14.172c-.564-.494,0,26.064,0,26.064s.141,5.382-5.031,5.159C-19694.857-11639.485-19746.283-11639.263-19746.283-11639.263Z" transform="translate(-470.421 3101.431)" fill="#fff" stroke="#676767" stroke-width="4"/>
      <g id="Group_16268" data-name="Group 16268" transform="translate(-20228.43 -8596.862)">
        <g id="Group_16267" data-name="Group 16267" transform="translate(6.803)">
          <path id="Path_21910" data-name="Path 21910" d="M-17014.33-10430.87c-.023,0-.508.937-.508.937h1.047s-.283,1.472-1.5,1.417a1.581,1.581,0,0,1-1.674-1.417,1.52,1.52,0,0,1,1.674-1.591C-17015.236-10431.524-17014.443-10431.493-17014.33-10430.87Z" transform="translate(17028.762 10438.671)" fill="#ff9062"/>
          <path id="Path_21911" data-name="Path 21911" d="M-17014.672-10431.229c.023,0-.459.664-.459.664h.906s.119,1.944-1.3,1.821a1.372,1.372,0,0,1-1.447-1.284c0-.052-.1-1.178.906-1.378A2.094,2.094,0,0,1-17014.672-10431.229Z" transform="translate(17034.756 10436.316)" fill="#ff9062"/>
          <path id="Path_21912" data-name="Path 21912" d="M-17015.4-10431.441c.033-.014-.393.6-.393.6h.732s.033,1.13-.885,1.119a1.068,1.068,0,0,1-1.039-.955.907.907,0,0,1,.744-1.012A.917.917,0,0,1-17015.4-10431.441Z" transform="translate(17050.131 10456.83)" fill="#ff9062"/>
          <path id="Path_21913" data-name="Path 21913" d="M1.434.239C1.462.227,1.08.785,1.08.785h.661s.032,1.019-.8,1.01A.962.962,0,0,1,0,.933.816.816,0,0,1,.675.022.816.816,0,0,1,1.434.239Z" transform="translate(38.13 23.056) rotate(-8)" fill="#ff9062"/>
          <path id="Path_21914" data-name="Path 21914" d="M-16903.072-10345.88a1.448,1.448,0,0,1,1.094-.641.659.659,0,0,1,.725.412c.018.016.148.923-.437,1.236C-16901.674-10344.863-16903.289-10344.8-16903.072-10345.88Z" transform="translate(16940.215 10372.581)" fill="#ff9062"/>
          <path id="Path_21908" data-name="Path 21908" d="M-17029.924-10422.046c.092,0-.566-7.614,2.066-11.159a7.784,7.784,0,0,1,4.025-3.259c.047-.1,2.445-1.1,2.539-2.442.1,0-2.252-2.878-2.2-5.223a6.526,6.526,0,0,1-.336-3.835,5.484,5.484,0,0,1,3.666,1.553c.049.048,2.207-2.526,5.2-2.126a6.269,6.269,0,0,1,.768-3.309,8.812,8.812,0,0,1,4.023,7.236c.1.145.865,5.318-4.023,7.092a27.576,27.576,0,0,0-.5,8.543,3.159,3.159,0,0,0,1.266,2.423c.045.021,1.2,1.285,0,1.744.023.022-5.408.132-5.408.132s-2.379-.24-2.355,1.811c-.023-.066-.414,2.354,2.77,2.464.045.022,12.811,0,12.811,0a4.352,4.352,0,0,0,3.777-2.873c.082-.029,2.23-5.7,2.23-5.7s5.232-1.129,5.793-8.543c-.062,0,.563-7.151-3.738-11.02,0-.071-3.3-1.629-2.055,1.362.063.063,2.367,1.81,2.055,9.657.127-.065-1.244,3.484-3.3.5-.125-.124-5.049-12.271-5.049-12.207a12.06,12.06,0,0,0-5.914-3.427c-.064.187-5.545-.187-7.848-1.683.244.063-6.291-3.052-8.785-7.724.125-.062-1.926-3.363.594-2.741a8.622,8.622,0,0,1,3.27,3.863c-.062.061,5.295,5.542,9.154,1.617a3.514,3.514,0,0,0,0-4.92,5.963,5.963,0,0,0-4.613-.87c.07,0-5.475-.686-8.715-4.112a6.746,6.746,0,0,0-5.172-1.308c0,.061-2.3.436,0,1.06a6.932,6.932,0,0,1,3.8,5.23c.127.124-.434,3.613,1.682,5.482a4.65,4.65,0,0,1,1.248,6.478c0,.063-.625,2.242-2.309,2.181a7.386,7.386,0,0,0,.7-3.1s1.625-1.658.176-3.032c-.012-.043-3.271-1.374-4.387.981.025-.021-.652,2.006,2.924,2.465a3.741,3.741,0,0,1-3.447,3.816c.021.044-6.715.492-8.133-5.092,0,0-1.223-1.476-1.846.652a5.813,5.813,0,0,1-1.273,4.439,12.691,12.691,0,0,1,3.7,8.962c-.061,0,.883,7.26-.408,12.2-.062,0,.3,2.8-2.1,3.28.074,0-2.91.111-3.168,1.954a1.763,1.763,0,0,0,1.768,2.137c.037-.036,6.2.04,6.2.04a2.124,2.124,0,0,0,2.541-1.785c.037-.1,1.477-8.611.369-12.519.074.11-.736-2.985-2.689-4.018,0-.036-1.145-2.211,1.326-1.731,0-.037,3.168.627,4.57,4.606a23.391,23.391,0,0,1,.959,8.883C-17031.734-10427.038-17032.375-10422.834-17029.924-10422.046Z" transform="translate(17051.953 10470.623)" fill="#ff9062"/>
          <path id="Path_21909" data-name="Path 21909" d="M-17060.844-10457.773c.676.028,1.684.571.285,5.881-.154.6-2.119,4.763-2.414,8.3a3.285,3.285,0,0,1-3.982,3.39,2.946,2.946,0,0,1-3.021-2.764s-.4-4.865,3.8-10.1C-17066.217-10453.1-17062.535-10457.887-17060.844-10457.773Z" transform="translate(17069.986 10460.632)" fill="#ff9062"/>
        </g>
        <path id="Path_21919" data-name="Path 21919" d="M-2889.3,7329.21a5.92,5.92,0,0,1,.4-.574c.536-.6,1.086-1.189,1.627-1.785a10,10,0,0,0,2.253-3.428,12.307,12.307,0,0,1,1.257-2.21c.425-.7.416-.694-.323-1.122a16.983,16.983,0,0,1-2.5-1.571,7.228,7.228,0,0,1-2.253-4.821c-.087-.628-.114-1.266-.168-1.9l.169-.1c1.021.888,2.012,1.813,3.072,2.651,1.076.853,2.22,1.617,3.391,2.462-.376-1.7.227-3.166.734-4.79,1.2,1.61,1.458,3.5,2.272,5.123a13.567,13.567,0,0,1,1.356-.8,1.429,1.429,0,0,1,1.611.2,1,1,0,0,0,.728.15,21.453,21.453,0,0,1,2.509-.4c-.687.249-1.383.475-2.058.752a4.53,4.53,0,0,0-2.586,2.8c-.133.367-.276.73-.395,1.1a4.69,4.69,0,0,1-3.509,3.36,6.794,6.794,0,0,0-3.317,2.251c-.18.2-.359.4-.655.722.065-.371.1-.565.157-.893l-3.573,3.028Z" transform="translate(2889.297 -7283.942)" fill="#ff9062"/>
      </g>
    </g>
    <g id="Pethowz" transform="translate(100.209 -312.793)" style="isolation: isolate">
      <g id="Group_17647" data-name="Group 17647" transform="translate(42.141 390.475)" style="isolation: isolate">
        <path id="Path_25607" data-name="Path 25607" d="M42.141,390.475h7.693a3.867,3.867,0,0,1,1.7.42,7.22,7.22,0,0,1,1.585,1.049,5.221,5.221,0,0,1,1.166,1.446,3.282,3.282,0,0,1,.443,1.562v11.936a3.223,3.223,0,0,1-.443,1.585,5.334,5.334,0,0,1-1.166,1.422,7.2,7.2,0,0,1-1.585,1.049,3.869,3.869,0,0,1-1.7.42h-2.8v11.8H42.141Zm4.895,15.245a4.253,4.253,0,0,1-.676,1.213,2.116,2.116,0,0,1-1.1.746.412.412,0,0,0,.466.466h1.818a1.642,1.642,0,0,0,.77-.21,3.471,3.471,0,0,0,.746-.536,2.726,2.726,0,0,0,.559-.723,1.636,1.636,0,0,0,.21-.769v-10.07a1.64,1.64,0,0,0-.21-.769,3.07,3.07,0,0,0-1.259-1.259,1.718,1.718,0,0,0-.816-.21H45.731a.412.412,0,0,0-.466.466,2.49,2.49,0,0,1,1.1.77,3.937,3.937,0,0,1,.676,1.189Z" transform="translate(-42.141 -390.475)" fill="#fff"/>
        <path id="Path_25608" data-name="Path 25608" d="M83.115,415.146a3.22,3.22,0,0,1-.443,1.585,5.315,5.315,0,0,1-1.166,1.422,7.2,7.2,0,0,1-1.585,1.049,3.874,3.874,0,0,1-1.7.42h-2.7v4.615a1.638,1.638,0,0,0,.21.77,3.062,3.062,0,0,0,1.259,1.259,1.721,1.721,0,0,0,.816.21h1.725a.412.412,0,0,0,.466-.466,2.474,2.474,0,0,1-1.1-.77,3.9,3.9,0,0,1-.676-1.189v-1.632h4.9v7.18h-7.6a3.87,3.87,0,0,1-1.7-.42,7.2,7.2,0,0,1-1.585-1.049,5.322,5.322,0,0,1-1.166-1.422,3.222,3.222,0,0,1-.443-1.585V408.479a3.278,3.278,0,0,1,.443-1.562,5.2,5.2,0,0,1,1.166-1.445,7.215,7.215,0,0,1,1.585-1.049,3.87,3.87,0,0,1,1.7-.42h7.6Zm-7.6,1.352h.42a1.726,1.726,0,0,0,.816-.21,3.069,3.069,0,0,0,1.259-1.259,1.637,1.637,0,0,0,.21-.77v-4.709a4.225,4.225,0,0,1,.676-1.212,2.114,2.114,0,0,1,1.1-.746.412.412,0,0,0-.466-.466H77.8a1.634,1.634,0,0,0-.77.21,3.47,3.47,0,0,0-.745.536,2.726,2.726,0,0,0-.559.722,1.642,1.642,0,0,0-.21.77Z" transform="translate(-55.701 -396.916)" fill="#fff"/>
        <path id="Path_25609" data-name="Path 25609" d="M103.816,390.564v7.04H110.9v7.18h-4.9v-1.632a3.918,3.918,0,0,1,.676-1.189,2.481,2.481,0,0,1,1.1-.77.412.412,0,0,0-.466-.466h-3.5v17.11a1.638,1.638,0,0,0,.21.77,2.734,2.734,0,0,0,.559.723,3.474,3.474,0,0,0,.746.536,1.638,1.638,0,0,0,.769.21h1.212a.412.412,0,0,0,.466-.466,2.11,2.11,0,0,1-1.1-.746,4.225,4.225,0,0,1-.676-1.212V416.02h4.849v7.18h-7.04a3.866,3.866,0,0,1-1.7-.42,7.172,7.172,0,0,1-1.585-1.049,5.3,5.3,0,0,1-1.166-1.422,3.218,3.218,0,0,1-.443-1.585v-28.16Z" transform="translate(-69.177 -390.517)" fill="#fff"/>
        <path id="Path_25610" data-name="Path 25610" d="M131.139,403.2v19.955h-4.895V390.475h4.895v7.087h2.8a3.868,3.868,0,0,1,1.7.42,7.237,7.237,0,0,1,1.585,1.049,5.218,5.218,0,0,1,1.166,1.445,3.284,3.284,0,0,1,.443,1.562v21.12h-4.895V403.016a1.641,1.641,0,0,0-.21-.769,2.751,2.751,0,0,0-.559-.723,3.488,3.488,0,0,0-.746-.536,1.636,1.636,0,0,0-.77-.21h-1.818a.412.412,0,0,0-.466.466,2.118,2.118,0,0,1,1.1.746A4.257,4.257,0,0,1,131.139,403.2Z" transform="translate(-82.187 -390.475)" fill="#fff"/>
        <path id="Path_25611" data-name="Path 25611" d="M154.723,408.479a3.272,3.272,0,0,1,.443-1.562,5.19,5.19,0,0,1,1.166-1.445,7.2,7.2,0,0,1,1.585-1.049,3.869,3.869,0,0,1,1.7-.42h2.8a3.868,3.868,0,0,1,1.7.42,7.239,7.239,0,0,1,1.585,1.049,5.218,5.218,0,0,1,1.166,1.445,3.284,3.284,0,0,1,.443,1.562v16.645a3.228,3.228,0,0,1-.443,1.585,5.342,5.342,0,0,1-1.166,1.422,7.222,7.222,0,0,1-1.585,1.049,3.868,3.868,0,0,1-1.7.42h-2.8a3.869,3.869,0,0,1-1.7-.42,7.186,7.186,0,0,1-1.585-1.049,5.312,5.312,0,0,1-1.166-1.422,3.217,3.217,0,0,1-.443-1.585Zm4.895,15.758a2.365,2.365,0,0,0,1.4,1.958,2.252,2.252,0,0,0,.979-.839,2.006,2.006,0,0,0,.42-1.119V409.365a2.008,2.008,0,0,0-.42-1.119,2.267,2.267,0,0,0-.979-.839,1.945,1.945,0,0,0-1.026.839,2.166,2.166,0,0,0-.373,1.119Z" transform="translate(-95.747 -396.916)" fill="#fff"/>
        <path id="Path_25612" data-name="Path 25612" d="M198.4,424.051V404h4.9v25.6H188.1a3.87,3.87,0,0,1-1.7-.42,7.2,7.2,0,0,1-1.585-1.049,5.322,5.322,0,0,1-1.166-1.422,3.222,3.222,0,0,1-.443-1.585V404h4.9v20.234a1.638,1.638,0,0,0,.21.77,3.062,3.062,0,0,0,1.259,1.259,1.721,1.721,0,0,0,.816.21h1.725a.412.412,0,0,0,.466-.466,2.47,2.47,0,0,1-1.1-.77,3.893,3.893,0,0,1-.676-1.189V404h4.9v20.234a1.631,1.631,0,0,0,.21.77,3.064,3.064,0,0,0,1.258,1.259,1.724,1.724,0,0,0,.816.21h1.725a.412.412,0,0,0,.466-.466,2.477,2.477,0,0,1-1.1-.77A3.9,3.9,0,0,1,198.4,424.051Z" transform="translate(-109.308 -396.916)" fill="#fff"/>
        <path id="Path_25613" data-name="Path 25613" d="M237.992,413.887a3.228,3.228,0,0,1-.443,1.586,5.825,5.825,0,0,1-1.119,1.422,6.289,6.289,0,0,1-1.539,1.049,3.871,3.871,0,0,1-1.7.419,1.721,1.721,0,0,0-.816.21,3.062,3.062,0,0,0-1.259,1.259,1.642,1.642,0,0,0-.21.77v5.874h3.5a.412.412,0,0,0,.466-.466,2.47,2.47,0,0,1-1.1-.77,3.894,3.894,0,0,1-.676-1.189v-1.632h4.9v7.18H226.01v-9.884a3.278,3.278,0,0,1,.443-1.562,5.643,5.643,0,0,1,1.119-1.445,6.235,6.235,0,0,1,1.539-1.049,3.873,3.873,0,0,1,1.7-.42,1.725,1.725,0,0,0,.816-.21,3.07,3.07,0,0,0,1.259-1.259,1.636,1.636,0,0,0,.21-.77v-5.874h-3.5a.412.412,0,0,0-.466.466,2.487,2.487,0,0,1,1.1.77,3.928,3.928,0,0,1,.676,1.189v1.632h-4.9V404h11.982Z" transform="translate(-129.691 -396.916)" fill="#fff"/>
      </g>
    </g>
  </g>
</svg>
