<svg xmlns="http://www.w3.org/2000/svg" width="109.022" height="105.064" viewBox="0 0 109.022 105.064">
  <g id="Group_18007" data-name="Group 18007" transform="translate(0 0)">
    <path id="Path_27473" data-name="Path 27473" d="M228.021,431.645c-3.968,4.581-8.776,6.048-14.573,3.986a8.2,8.2,0,0,0-7,.817,12.3,12.3,0,0,1-6.5,1.511c-3.551-.056-7.1.007-10.656-.053-1.01-.017-2.3.072-2.645-1.205-.333-1.218.667-1.926,1.555-2.48a6.729,6.729,0,0,1,2.609-1.2c2.331-.247,2.926-1.49,2.653-3.607-.264-2.042.607-3.906,1.5-6.123a5.368,5.368,0,0,0-2.827,3.818c-.432,1.63-1.309,1.766-2.366.6-1.5-1.655-2.9-3.4-4.552-5.347-.557,3.25-.742,6.316-2.012,9.113-.532,1.173-1.064,2.352-1.706,3.466-.389.675-.886,1.553-1.808,1.367-.982-.2-.956-1.25-.988-2.008-.1-2.257-.138-4.519-.08-6.777A11.892,11.892,0,0,0,177,421.081a15.883,15.883,0,0,1-1.5-12.861,10.533,10.533,0,0,0-1.575-10.06,12.474,12.474,0,0,1-2.26-8.482c.058-.993.228-2,1.266-2.43,1-.41,1.694.32,2.294.958,2.286,2.427,4.659,4.655,8.11,5.366a3.619,3.619,0,0,1,2.536,2.111c.726,1.656,1.666,1.593,3.056.766,1.1-.656,2.6-2.207,3.563-1.056.988,1.183-.65,2.585-1.488,3.7a12.045,12.045,0,0,1-1.944,1.8c-2.022,1.715-2.2,3.4-.413,5.363a13.443,13.443,0,0,0,5.238,3.386c9.229,3.588,14.106,10.424,14.757,20.216.14,2.108.631,2.436,2.553,1.767a14.55,14.55,0,0,1,8.1-.692c3.068.7,5.845-.613,8.722-1.231Z" transform="translate(-118.998 -332.898)" fill="#fff"/>
    <path id="Path_27474" data-name="Path 27474" d="M63,337.464c3.787-4.81,7.588-9.61,12.321-13.555.569-.474,1.265-1.478,2.012-.847s-.157,1.46-.517,2.111A110.2,110.2,0,0,0,66.19,351.019c-.1.378-.126.8-.751,1.062-1.484-2.029-1.238-4.727-2.439-6.865Z" transform="translate(-63 -299.769)" fill="#fff"/>
    <path id="Path_27475" data-name="Path 27475" d="M91.115,321.413c-3.267-1.78-6.373-.041-6.816,3.854-.453,3.978,1.242,7.233,3.6,10.223,2.623,3.327,2.892,3.484.545,6.9-4.276,6.219-5.581,12.957-5.335,20.41A118.74,118.74,0,0,1,80.3,390.668a13.411,13.411,0,0,1-2.309,5.8c-1.459,1.849-3.092,1.695-4.145-.427a18.41,18.41,0,0,1-1.433-7.557c-.395-9.109-.536-18.232-1.1-27.33-.317-5.12-.466-10.171,1.031-15.109,2.684-8.853,6.8-17.078,11.361-25.086a5.82,5.82,0,0,1,6.284-2.632c2.766.606,4.045,2.5,4.932,5.075,2.1,6.087,4.849,11.716,11.326,14.466a23.563,23.563,0,0,1,7.618,4.62c.938.926,1.813,1.992,1.237,3.417-.589,1.456-1.976,1.6-3.287,1.46-11.529-1.239-20.089-6.926-25.544-17.2a7.447,7.447,0,0,1-.549-1.6C84.522,324.047,86.542,321.378,91.115,321.413Z" transform="translate(-67.175 -297.361)" fill="#fff"/>
    <path id="Path_27476" data-name="Path 27476" d="M97.644,283.855a8.507,8.507,0,0,1,8.519-8.648A8.647,8.647,0,1,1,106.2,292.5,8.593,8.593,0,0,1,97.644,283.855Z" transform="translate(-80.857 -275.206)" fill="#fff"/>
  </g>
</svg>
