<svg xmlns="http://www.w3.org/2000/svg" width="18.304" height="24.404" viewBox="0 0 18.304 24.404">
  <path id="_24034382416276587583774" data-name="24034382416276587583774" d="M29.944,19.084h3.789a1.191,1.191,0,0,1,0,2.383H29.944a6.672,6.672,0,0,1-6.553,5.48h-2.6l8.935,8.935a1.192,1.192,0,0,1-1.686,1.686L17.071,26.6a1.191,1.191,0,0,1,.411-1.948c-.173-.173,5.844-.06,5.957-.089a4.289,4.289,0,0,0,4.11-3.1H17.911a1.191,1.191,0,0,1,0-2.383H27.5a4.289,4.289,0,0,0-4.11-3.092h-5.48a1.191,1.191,0,0,1,0-2.383H33.733a1.191,1.191,0,0,1,0,2.383H28.491a6.613,6.613,0,0,1,1.453,3.092Z" transform="translate(-16.67 -13.56)" fill="#ff9a71" stroke="#fff" stroke-width="0.1"/>
</svg>
