<svg id="Group_18166" data-name="Group 18166" xmlns="http://www.w3.org/2000/svg" width="102.538" height="16.132" viewBox="0 0 102.538 16.132">
  <g id="Group_17675" data-name="Group 17675" transform="translate(0 0)">
    <path id="Path_21657" data-name="Path 21657" d="M43.224,207.351a.444.444,0,0,0-.361-.283l-5.76-.778-2.577-4.849a.485.485,0,0,0-.8,0l-2.577,4.849-5.758.778a.439.439,0,0,0-.361.283.394.394,0,0,0,.113.425l4.168,3.774-.983,5.329a.4.4,0,0,0,.177.405.478.478,0,0,0,.472.032l5.151-2.516,5.153,2.516a.471.471,0,0,0,.209.047.463.463,0,0,0,.262-.079.4.4,0,0,0,.175-.405l-.982-5.329,4.168-3.774A.392.392,0,0,0,43.224,207.351Z" transform="translate(-25.007 -201.23)" fill="#ffc50b"/>
    <path id="Path_21658" data-name="Path 21658" d="M130.394,207.351a.441.441,0,0,0-.361-.283l-5.758-.778-2.577-4.849a.485.485,0,0,0-.8,0l-2.577,4.849-5.758.778a.439.439,0,0,0-.361.283.392.392,0,0,0,.113.425l4.168,3.774-.985,5.329a.407.407,0,0,0,.177.405.479.479,0,0,0,.472.032L121.3,214.8l5.151,2.516a.477.477,0,0,0,.209.047.466.466,0,0,0,.264-.079.4.4,0,0,0,.175-.405l-.983-5.329,4.168-3.774A.392.392,0,0,0,130.394,207.351Z" transform="translate(-91.052 -201.23)" fill="#ffc50b"/>
    <path id="Path_21659" data-name="Path 21659" d="M218.466,207.351a.441.441,0,0,0-.361-.283l-5.758-.778-2.577-4.849a.485.485,0,0,0-.8,0l-2.577,4.849-5.757.778a.439.439,0,0,0-.361.283.389.389,0,0,0,.113.425l4.168,3.774-.985,5.329a.4.4,0,0,0,.177.405.479.479,0,0,0,.472.032l5.153-2.516,5.153,2.516a.465.465,0,0,0,.208.047.459.459,0,0,0,.262-.079.4.4,0,0,0,.177-.405l-.983-5.329,4.168-3.774A.394.394,0,0,0,218.466,207.351Z" transform="translate(-157.78 -201.23)" fill="#ffc50b"/>
    <path id="Path_21660" data-name="Path 21660" d="M303.881,207.351a.436.436,0,0,0-.359-.283l-5.758-.778-2.577-4.849a.485.485,0,0,0-.8,0l-2.577,4.849-5.758.778a.437.437,0,0,0-.361.283.391.391,0,0,0,.111.425l4.17,3.774-.985,5.329a.4.4,0,0,0,.177.405.478.478,0,0,0,.472.032l5.153-2.516,5.151,2.516a.471.471,0,0,0,.209.047.463.463,0,0,0,.262-.079.4.4,0,0,0,.177-.405l-.983-5.329,4.168-3.774A.4.4,0,0,0,303.881,207.351Z" transform="translate(-222.494 -201.23)" fill="#ffc50b"/>
  </g>
  <path id="Path_25638" data-name="Path 25638" d="M391.045,207.351a.444.444,0,0,0-.361-.283l-5.76-.778-2.577-4.849a.485.485,0,0,0-.8,0l-2.576,4.849-5.76.778a.439.439,0,0,0-.361.283.392.392,0,0,0,.113.425l4.168,3.774-.983,5.329a.4.4,0,0,0,.177.405.475.475,0,0,0,.47.032l5.153-2.516,5.153,2.516a.471.471,0,0,0,.209.047.463.463,0,0,0,.262-.079.4.4,0,0,0,.175-.405l-.981-5.329,4.166-3.774A.391.391,0,0,0,391.045,207.351Z" transform="translate(-288.529 -201.23)" fill="#a7a7a7" opacity="0.5"/>
</svg>
