<svg xmlns="http://www.w3.org/2000/svg" width="160.384" height="107.175" viewBox="0 0 160.384 107.175">
  <path id="Path_27524" data-name="Path 27524" d="M-126.983,1490.022a2.621,2.621,0,0,1,.774-3.164,5.079,5.079,0,0,1,3.817-1.678c2.46.022,4.924-.047,7.382-.167,1.143-.056,1.408-.583,1.008-1.669a2.558,2.558,0,0,0-2.149-1.935c-.707-.094-1.566-.021-2.006-.867-.055-.107-.4-.061-.932-.124l1.445-1.778-4.315-4.837c.161.7.291,1.392.487,2.067.237.821.052,1.258-.793,1.4a1.369,1.369,0,0,0-1.2,1.108c-.335,1.3-.7,2.6-.938,3.922a2.081,2.081,0,0,1-1.746,1.879,12.193,12.193,0,0,1-6.24.094,2.9,2.9,0,0,0-.848.061,2.09,2.09,0,0,1,0-.438,5.086,5.086,0,0,1,4.259-3.227,1.048,1.048,0,0,0,1.2-.743,15.484,15.484,0,0,0,1.324-5.884c.044-3.61.082-7.222.012-10.832-.036-1.844-.427-3.681-.439-5.523a6.124,6.124,0,0,0-1.076-3.392c-3.361-5.348-7.728-9.862-11.891-14.547-.248-.279-.546-.514-.841-.789a7.291,7.291,0,0,1-.6.459.939.939,0,0,1-1.479-.514c-.181-1.027-.865-1.21-1.667-1.09a2.211,2.211,0,0,1-2.235-.775c-1.851,1.625-3.957,1.466-6.1.952-2.618-.63-5.238-1.257-7.834-1.968-2.114-.578-3.986.2-5.731,1.1a36.37,36.37,0,0,0-4.956,3.326,76.708,76.708,0,0,1-12.8,7.685,8.125,8.125,0,0,1-4.394,1.018,5.119,5.119,0,0,1-3.762-2.182c-1.154-1.584-2.269-3.2-3.482-4.908-.4,1.358-.778,2.623-1.152,3.888-.655,2.215-1.268,4.443-1.976,6.641-.672,2.089-.488,2.518,1.315,3.676,3.378,2.171,6.695,4.438,10.048,6.649,2.055,1.355,4.115,2.7,6.2,4.011,3.2,2.008,6.1,4.3,7.683,7.873.594,1.343,1.045,2.7.067,4.089a1.465,1.465,0,0,0-.106.685c-.039.527-.057,1.055-.1,1.582-.278,3.6-1.467,4.754-5.064,5.1a49.961,49.961,0,0,1-16.463-1.613c-6.125-1.459-12.319-2.628-18.488-3.9a1.072,1.072,0,0,0-.88.268c-.795.951-1.522,1.958-2.22,2.875,1.675.255,1.565,1.314,1.024,3.084-.559,1.827-2.114,2.345-3.8,2.427-1.343.064-2.7-.062-4.044-.1-.849-.025-1.223-.5-1.379-1.3a10.826,10.826,0,0,1,.811-6.276,11.592,11.592,0,0,0,.672-5.785c-.4-3.711.272-4.9,4.128-5.235.864-.075,1.729-.143,2.357-.194a24.384,24.384,0,0,1-3.085-2.175c-2.058-1.94-2.665-4.536-2.933-7.25a18.018,18.018,0,0,1,2.023-10.118c.265-.522.48-1.074.781-1.574,2.388-3.959,2.913-8.414,3.549-12.865.809-5.662,1.855-11.28,4.2-16.562.071-.161.148-.319.223-.478.238-.5.721-1.044.646-1.493-.071-.42-.736-.737-1.133-1.105a2.571,2.571,0,0,1-.508-2.79,14.54,14.54,0,0,1,3.31-6.035,9.45,9.45,0,0,0,2.644-4.089c.392-1.71.808-3.415,1.148-5.135a7.592,7.592,0,0,1,1.778-4.033c1.014-1.052,1.985-2.148,3.033-3.164a9.234,9.234,0,0,1,1.413-.87c.414-.273.774-.637,1.205-.876a3.941,3.941,0,0,1,1.587-.649,1.773,1.773,0,0,0,1.364-.785c.891-1.011,1.769-2.045,2.754-2.961a8.368,8.368,0,0,1,5.07-2.407c2.83-.228,5.689-.652,8.362.785,3.008,1.618,5.347,3.81,6.1,7.3a3.618,3.618,0,0,1-.344,2.971,2.75,2.75,0,0,1-1.221,1.01c-.824.285-.894.685-.556,1.384.484,1,.956,2.014,1.371,3.046.437,1.086.191,1.426-.981,1.4-.745-.013-.989.464-1.049,1.049a1.116,1.116,0,0,1-.947,1.154c-.571.139-.935.5-.363,1.151.148.168.032.6-.015.9a4.752,4.752,0,0,0-.246,1.194c.124.957-.412,1.829-1.344,1.68a25.6,25.6,0,0,1-5.442-1.243c-2.256-.9-2.758-.836-3.55,1.473-.4,1.157-.338,1.09.727,1.554a5.728,5.728,0,0,1,2.075,1.507c1.547,1.863,1.854,4.176,2.155,6.494.358,2.76.8,5.51,1.293,8.249a6.924,6.924,0,0,0,.871,1.747,14.117,14.117,0,0,0,1.3-1.211,17.975,17.975,0,0,0,3.252-5.993c.433-1.308.841-2.623,1.292-3.924a13.031,13.031,0,0,0,.526-3.614c.126-2.24.575-4.462.9-6.69.091-.62.223-1.233.335-1.85l.384-.079.755,1.707c.347-1.236.649-2.516,1.071-3.755a26.8,26.8,0,0,1,1.334-3.145c.149-.3.564-.477.858-.71a3.833,3.833,0,0,1,.137,1.122,14.338,14.338,0,0,1-.517,1.674c-.257.837-.5,1.678-.786,2.627a3.734,3.734,0,0,1,.936.31,12.848,12.848,0,0,1,1.149.979,6.477,6.477,0,0,1,1.614,3.205,4.211,4.211,0,0,1-.029,2.383,8.288,8.288,0,0,1-2.861,4.331,2.443,2.443,0,0,0-.769,1.331c-.485,2.08-.761,4.216-1.351,6.263-1.439,4.989-3.027,9.932-6.219,14.159-.027.036-.012.1-.025.25,1.849-.75,3.641-1.519,5.465-2.205,1.781-.67,3.613-1.209,5.388-1.9a16.931,16.931,0,0,0,2.637-1.379,6.512,6.512,0,0,1,4.89-.844c1.222.25,2.474.355,3.713.518.581.076,1.172.095,1.741.221.237.053.426.318.638.486-.2.23-.365.609-.6.662-.912.2-1.848.305-2.775.441-.2.028-.393.039-.59.058l-.058.251c1.081.341,2.169.662,3.243,1.028a1.75,1.75,0,0,0,1.854-.275,2.6,2.6,0,0,1,2.238-.477,23.379,23.379,0,0,0,7.706.233,5.978,5.978,0,0,1,5.754,2.026c1.229,1.4,2.67,2.623,4.171,4.073a8.338,8.338,0,0,0,.2-1.089c.035-1.29,0-2.584.076-3.872.055-.956.3-1.9.341-2.857a4.923,4.923,0,0,0-.262-2.105,12.906,12.906,0,0,0-3.5-4.577c-1.1-.948-1.866-2.242-3.285-2.876a10.055,10.055,0,0,0-3.753-.736c-1.184-.056-2.367-.179-3.543-.329-.574-.073-1.125-.349-1.7-.4-3.383-.315-4.829-2.756-5.759-5.319-.287-.793.118-1.391,1.01-1.639,1.971-.548,3.949-1.073,5.928-1.594a4.164,4.164,0,0,0,3.087-2.088,1.384,1.384,0,0,1,.7-.628,26.016,26.016,0,0,1,5.607-1.906,13.726,13.726,0,0,1,3.756-.075,3.628,3.628,0,0,1,2.475,1.676,37.13,37.13,0,0,0,3.952,5.115c2.529,2.647,4.793,5.548,7.152,8.356.754.9,1.386,1.907,2.2,2.745a13.268,13.268,0,0,0,2.683,2.231,12.6,12.6,0,0,1,5.148,5.495,10.64,10.64,0,0,0,1.761,2.4,29.379,29.379,0,0,1,4.788,6.809c1.229,2.527,2.79,4.9,3.883,7.484a59.015,59.015,0,0,1,3.434,12.967,36.927,36.927,0,0,1-.035,11.555c-.129.924-.423,1.823-.627,2.738a2.846,2.846,0,0,0,.527,2.407,14.329,14.329,0,0,0,10.974,5.974c1.228.095,2.464.087,3.694.165a31.42,31.42,0,0,0,9.678-.947,14.238,14.238,0,0,1,7-.186,3.913,3.913,0,0,1-1.886,1.678,24.254,24.254,0,0,1-10.42,2.558c-3.226.021-6.464.125-9.678-.1a14.718,14.718,0,0,1-10.044-4.681c-.63-.673-1.191-1.254-2.317-.826a7.219,7.219,0,0,1-2.267.007,1.17,1.17,0,0,0-.785.211,4.912,4.912,0,0,1-4.244,1.6,7.21,7.21,0,0,1,.673,1.538c.159.862-.2,1.288-1.092,1.316-1.784.056-3.572.082-5.356.04a8.264,8.264,0,0,0-4.142.455,1.236,1.236,0,0,1-.767.138c-2-.471-3.869.239-5.772.594-.643.12-1.218.651-1.906.074-.09-.075-.456.177-.739.3l-.6-.546Zm11.329-25.99c0-1.184-.109-1.372-1.1-1.644-1.311-.359-2.635-.671-4.077-1.034q-.2,2.049-.41,4.087C-119.72,1463.555-117.629,1464.133-115.654,1464.032Zm-81.926-67.941.786-3.526c-.7-.235-1.264.069-1.632.857A2.048,2.048,0,0,0-197.58,1396.09Zm13.521,43.891.017-.276-1.7-1.62-.29.131a9.045,9.045,0,0,0,.507,2C-185.463,1440.345-184.569,1440.071-184.059,1439.981Z" transform="translate(225.231 -1382.847)" fill="#fff"/>
</svg>
