<svg xmlns="http://www.w3.org/2000/svg" xmlns:xlink="http://www.w3.org/1999/xlink" width="36.229" height="29.456" viewBox="0 0 36.229 29.456">
  <defs>
    <linearGradient id="linear-gradient" x1="0.5" x2="0.5" y2="1" gradientUnits="objectBoundingBox">
      <stop offset="0" stop-color="#36d1dc"/>
      <stop offset="1" stop-color="#5b86e5"/>
    </linearGradient>
  </defs>
  <path id="Path_29958" data-name="Path 29958" d="M38.006,7.185a14.9,14.9,0,0,1-4.269,1.169,7.458,7.458,0,0,0,3.27-4.113,14.854,14.854,0,0,1-4.721,1.8,7.433,7.433,0,0,0-12.665,6.779A21.1,21.1,0,0,1,4.3,5.058a7.444,7.444,0,0,0,2.3,9.925,7.408,7.408,0,0,1-3.366-.93v.092A7.438,7.438,0,0,0,9.2,21.434a7.482,7.482,0,0,1-3.358.128,7.438,7.438,0,0,0,6.944,5.163,14.919,14.919,0,0,1-11,3.078,21.026,21.026,0,0,0,11.393,3.341c13.673,0,21.15-11.327,21.15-21.15,0-.32-.009-.643-.023-.96a15.1,15.1,0,0,0,3.709-3.848Z" transform="translate(-1.779 -3.688)" fill="url(#linear-gradient)"/>
</svg>
