<svg xmlns="http://www.w3.org/2000/svg" width="18.925" height="17.033" viewBox="0 0 18.925 17.033">
  <path id="Path_25605" data-name="Path 25605" d="M9.407,4.893,7.515,6.785H3.893V18.14h15.14V6.785H15.41L13.518,4.893ZM8.624,3H14.3l1.893,1.893h3.785a.946.946,0,0,1,.946.946V19.086a.946.946,0,0,1-.946.946H2.946A.946.946,0,0,1,2,19.086V5.839a.946.946,0,0,1,.946-.946H6.731Zm.606,4.287a5.2,5.2,0,0,1,5.855,8.441l-1.965-3.643h1.655V11.99a3.312,3.312,0,0,0-4.663-3.024Zm4.426,9.425A5.2,5.2,0,0,1,7.807,8.285l2,3.7H8.151a3.312,3.312,0,0,0,4.623,3.042l.881,1.679Z" transform="translate(-2 -3)" fill="#ff9a71"/>
</svg>
