<svg xmlns="http://www.w3.org/2000/svg" width="63.333" height="57" viewBox="0 0 63.333 57">
  <path id="Path_29968" data-name="Path 29968" d="M62.167,60h-57A3.167,3.167,0,0,1,2,56.833V33.042a3.167,3.167,0,0,1,1.086-2.388l11.58-10.1V6.167A3.167,3.167,0,0,1,17.833,3H62.167a3.167,3.167,0,0,1,3.167,3.167V56.833A3.167,3.167,0,0,1,62.167,60Zm-38-6.333h9.5V34.483L21,23.438,8.333,34.483V53.667h9.5V41h6.333Zm15.833,0H59V9.333H21v6.735a3.148,3.148,0,0,1,2.08.782l15.833,13.8A3.167,3.167,0,0,1,40,33.042Zm6.333-25.333h6.333v6.333H46.333Zm0,12.667h6.333v6.333H46.333Zm0-25.333h6.333V22H46.333Zm-12.667,0H40V22H33.667Z" transform="translate(-2 -3)" fill="#ff9a71"/>
</svg>
