<svg id="g4158" xmlns="http://www.w3.org/2000/svg" width="78.829" height="25.512" viewBox="0 0 78.829 25.512">
  <path id="polygon9" d="M439.893,135.423h-6.386l3.994-24.7h6.385Z" transform="translate(-405.734 -110.279)" fill="#00579f"/>
  <path id="path11" d="M584.334,106.1a15.736,15.736,0,0,0-5.727-1.051c-6.306,0-10.747,3.363-10.774,8.17-.052,3.547,3.179,5.517,5.6,6.7,2.471,1.209,3.31,2,3.31,3.075-.025,1.654-2,2.417-3.835,2.417a12.709,12.709,0,0,1-5.991-1.314l-.841-.395-.894,5.544a19.434,19.434,0,0,0,7.122,1.314c6.7,0,11.062-3.311,11.114-8.434.026-2.811-1.681-4.966-5.36-6.726-2.234-1.13-3.6-1.892-3.6-3.048.026-1.051,1.157-2.128,3.678-2.128a10.849,10.849,0,0,1,4.757.946l.578.262.868-5.333Z" transform="translate(-527.026 -105.048)" fill="#00579f"/>
  <path id="path13" d="M800.4,126.674c.526-1.419,2.549-6.91,2.549-6.91-.026.053.525-1.445.84-2.364l.446,2.128s1.209,5.911,1.472,7.146Zm7.882-15.947h-4.939a3.151,3.151,0,0,0-3.338,2.049l-9.485,22.647h6.7s1.1-3.048,1.34-3.7h8.2c.183.867.762,3.7.762,3.7h5.913l-5.152-24.7Z" transform="translate(-734.607 -110.279)" fill="#00579f"/>
  <path id="path15" d="M181.6,110.727l-6.254,16.84-.683-3.415a18.9,18.9,0,0,0-8.829-10.352l5.728,21.6h6.753l10.037-24.67Z" transform="translate(-159.161 -110.279)" fill="#00579f"/>
  <path id="path17" d="M91.545,110.727H81.271l-.105.5c8.014,2.049,13.322,6.989,15.5,12.927L94.435,112.8c-.368-1.577-1.5-2.024-2.89-2.076Z" transform="translate(-81.166 -110.279)" fill="#faa61a"/>
</svg>
