<svg xmlns="http://www.w3.org/2000/svg" xmlns:xlink="http://www.w3.org/1999/xlink" width="36.82" height="29.456" viewBox="0 0 36.82 29.456">
  <defs>
    <linearGradient id="linear-gradient" x1="0.5" x2="0.5" y2="1" gradientUnits="objectBoundingBox">
      <stop offset="0" stop-color="#ff512f"/>
      <stop offset="1" stop-color="#dd2476"/>
    </linearGradient>
  </defs>
  <path id="Path_29954" data-name="Path 29954" d="M37.979,8.6c.841,3.281.841,10.129.841,10.129s0,6.849-.841,10.129a5.175,5.175,0,0,1-3.568,3.723c-3.146.876-14,.876-14,.876s-10.849,0-14-.876a5.175,5.175,0,0,1-3.568-3.723C2,25.577,2,18.728,2,18.728S2,11.88,2.841,8.6A5.175,5.175,0,0,1,6.409,4.876C9.561,4,20.41,4,20.41,4s10.855,0,14,.876A5.174,5.174,0,0,1,37.979,8.6ZM16.728,25.172l11.046-6.444L16.728,12.285Z" transform="translate(-2 -4)" fill="url(#linear-gradient)"/>
</svg>
