<svg id="icons8-gmail" xmlns="http://www.w3.org/2000/svg" width="26.269" height="20.014" viewBox="0 0 26.269 20.014">
  <path id="Path_21516" data-name="Path 21516" d="M41.255,16.2l-3.127,1.72L35,20.891V31.086h4.378a1.876,1.876,0,0,0,1.876-1.876Z" transform="translate(-14.986 -11.071)" fill="#4caf50"/>
  <path id="Path_21517" data-name="Path 21517" d="M3,16.2l2.26,1.07,3.994,3.621V31.086H4.876A1.876,1.876,0,0,1,3,29.209Z" transform="translate(-3 -11.071)" fill="#1e88e5"/>
  <path id="Path_21518" data-name="Path 21518" d="M26.385,11.2l-6.88,5.16-6.88-5.16L12,14.828l.625,4.191,6.88,5.16,6.88-5.16.625-4.191Z" transform="translate(-6.371 -9.199)" fill="#e53935"/>
  <path id="Path_21519" data-name="Path 21519" d="M3,10.688v2.441L9.255,17.82V10L7.3,8.537A2.686,2.686,0,0,0,5.688,8h0A2.688,2.688,0,0,0,3,10.688Z" transform="translate(-3 -8)" fill="#c62828"/>
  <path id="Path_21520" data-name="Path 21520" d="M41.255,10.688v2.441L35,17.82V10l1.954-1.464A2.686,2.686,0,0,1,38.566,8h0A2.688,2.688,0,0,1,41.255,10.688Z" transform="translate(-14.986 -8)" fill="#fbc02d"/>
</svg>
