<svg xmlns="http://www.w3.org/2000/svg" xmlns:xlink="http://www.w3.org/1999/xlink" width="29.456" height="29.456" viewBox="0 0 29.456 29.456">
  <defs>
    <linearGradient id="linear-gradient" x1="0.5" x2="0.5" y2="1" gradientUnits="objectBoundingBox">
      <stop offset="0" stop-color="#ff5f6d"/>
      <stop offset="1" stop-color="#ffc371"/>
    </linearGradient>
  </defs>
  <path id="Path_29956" data-name="Path 29956" d="M16.728,2c4,0,4.5.015,6.071.088a10.85,10.85,0,0,1,3.576.685,7.181,7.181,0,0,1,2.61,1.7,7.229,7.229,0,0,1,1.7,2.61,10.88,10.88,0,0,1,.685,3.576c.069,1.57.088,2.069.088,6.071s-.015,4.5-.088,6.071a10.888,10.888,0,0,1-.685,3.576,7.52,7.52,0,0,1-4.308,4.308,10.88,10.88,0,0,1-3.576.685c-1.57.069-2.069.088-6.071.088s-4.5-.015-6.071-.088a10.888,10.888,0,0,1-3.576-.685,7.52,7.52,0,0,1-4.308-4.308A10.842,10.842,0,0,1,2.088,22.8C2.019,21.229,2,20.73,2,16.728s.015-4.5.088-6.071a10.842,10.842,0,0,1,.685-3.576,7.187,7.187,0,0,1,1.7-2.61,7.212,7.212,0,0,1,2.61-1.7,10.842,10.842,0,0,1,3.576-.685C12.227,2.019,12.727,2,16.728,2Zm0,7.364a7.364,7.364,0,1,0,7.364,7.364A7.364,7.364,0,0,0,16.728,9.364ZM26.3,9a1.841,1.841,0,1,0-1.841,1.841A1.841,1.841,0,0,0,26.3,9ZM16.728,12.31a4.418,4.418,0,1,1-4.418,4.418A4.418,4.418,0,0,1,16.728,12.31Z" transform="translate(-2 -2)" fill="url(#linear-gradient)"/>
</svg>
