<svg id="Group_18060" data-name="Group 18060" xmlns="http://www.w3.org/2000/svg" width="30.148" height="30.148" viewBox="0 0 30.148 30.148">
  <path id="Path_27518" data-name="Path 27518" d="M0,0H30.148V30.148H0Z" fill="none"/>
  <path id="Path_27519" data-name="Path 27519" d="M14.306,25.742l6.218-6.218a8.793,8.793,0,1,0-12.436,0Zm0,3.552L6.311,21.3a11.306,11.306,0,1,1,15.989,0Zm0-13.476a2.512,2.512,0,1,0-2.512-2.512A2.512,2.512,0,0,0,14.306,15.818Zm0,2.512a5.025,5.025,0,1,1,5.025-5.025A5.025,5.025,0,0,1,14.306,18.33Z" transform="translate(0.769 0.512)" fill="#ffa47f"/>
</svg>
