<svg xmlns="http://www.w3.org/2000/svg" width="58.909" height="36.407" viewBox="0 0 58.909 36.407">
  <g id="layer1" transform="translate(0 0)">
    <g id="g13" transform="translate(0 0)">
      <g id="XMLID_328_">
        <rect id="rect19" width="15.928" height="28.62" transform="translate(21.49 3.894)" fill="#ff5f00"/>
        <path id="XMLID_330_" d="M2921.236,2257.705a18.251,18.251,0,0,1,6.927-14.31,18.2,18.2,0,1,0,0,28.62A18.175,18.175,0,0,1,2921.236,2257.705Z" transform="translate(-2898.735 -2239.502)" fill="#eb001b"/>
        <path id="path22" d="M3428.6,2257.705a18.184,18.184,0,0,1-29.429,14.31,18.243,18.243,0,0,0,0-28.62,18.184,18.184,0,0,1,29.429,14.31Z" transform="translate(-3369.688 -2239.502)" fill="#f79e1b"/>
      </g>
    </g>
  </g>
</svg>
