<svg xmlns="http://www.w3.org/2000/svg" width="106.633" height="103.738" viewBox="0 0 106.633 103.738">
  <g id="Group_16904" data-name="Group 16904" transform="translate(20241.066 8623.032)">
    <path id="Path_21920" data-name="Path 21920" d="M-19742.014-11623.342h-10.359a6.277,6.277,0,0,1-5.955-6.146c-.1.1,0-30.756,0-30.756s-15.33-2.146-8.5-17.184c1.092-2.842,18.162-16.988,18.162-16.988v-12.6s-.586-4.687,2.928-4.785h5.471s2.734,0,2.539,3.32c.012.609,0,3.391,0,3.391l14.574-14.58s5.789-6.221,11.8,0c0,.43,42.686,42.238,42.686,42.238s8.842,10.051-5.8,16.885c-.674-.588,0,31.055,0,31.055s.166,6.412-5.994,6.146C-19680.744-11623.607-19742.014-11623.342-19742.014-11623.342Z" transform="translate(-470.421 3101.431)" fill="#fff" stroke="#676767" stroke-width="4"/>
    <g id="Group_16268" data-name="Group 16268" transform="translate(-3125.148 2065.049)">
      <g id="Group_16267" data-name="Group 16267">
        <path id="Path_21910" data-name="Path 21910" d="M-17013.824-10430.744c-.029,0-.605,1.115-.605,1.115h1.248s-.338,1.754-1.789,1.688a1.885,1.885,0,0,1-2-1.688,1.812,1.812,0,0,1,2-1.895C-17014.9-10431.523-17013.959-10431.486-17013.824-10430.744Z" transform="translate(-62.133 -217.252)" fill="#ff9062"/>
        <path id="Path_21911" data-name="Path 21911" d="M-17014.23-10431.186c.027,0-.547.791-.547.791h1.08s.143,2.317-1.549,2.17a1.633,1.633,0,0,1-1.723-1.529c0-.062-.117-1.4,1.078-1.642A2.5,2.5,0,0,1-17014.23-10431.186Z" transform="translate(-54.992 -220.043)" fill="#ff9062"/>
        <path id="Path_21912" data-name="Path 21912" d="M-17015.094-10431.391c.039-.016-.469.721-.469.721h.873s.039,1.346-1.055,1.333a1.271,1.271,0,0,1-1.236-1.138,1.079,1.079,0,0,1,.885-1.205A1.092,1.092,0,0,1-17015.094-10431.391Z" transform="translate(-36.678 -195.65)" fill="#ff9062"/>
        <path id="Path_21913" data-name="Path 21913" d="M1.708.285c.034-.014-.422.65-.422.65h.788s.038,1.214-.952,1.2A1.146,1.146,0,0,1,.006,1.111.973.973,0,0,1,.8.026.972.972,0,0,1,1.708.285Z" transform="translate(-17047.723 -10629.82) rotate(-8)" fill="#ff9062"/>
        <path id="Path_21914" data-name="Path 21914" d="M-16903.068-10345.756a1.726,1.726,0,0,1,1.3-.763.784.784,0,0,1,.863.49c.021.019.176,1.1-.52,1.474C-16901.4-10344.545-16903.328-10344.464-16903.068-10345.756Z" transform="translate(-145.83 -279.723)" fill="#ff9062"/>
        <path id="Path_21908" data-name="Path 21908" d="M-17026.7-10412.746c.109,0-.674-9.071,2.463-13.295-.059-.114,2.17-3.256,4.8-3.883.055-.114,2.912-1.313,3.025-2.91.113,0-2.684-3.429-2.625-6.223a7.753,7.753,0,0,1-.4-4.569c.113.059,2.807.017,4.367,1.851.059.057,2.629-3.011,6.189-2.533a7.446,7.446,0,0,1,.916-3.941,10.5,10.5,0,0,1,4.793,8.621c.119.172,1.031,6.337-4.793,8.449a32.777,32.777,0,0,0-.594,10.179,3.761,3.761,0,0,0,1.508,2.887c.053.024,1.428,1.531,0,2.078.027.026-6.445.156-6.445.156s-2.832-.286-2.8,2.157c-.027-.078-.494,2.8,3.3,2.936.055.027,15.264,0,15.264,0a5.182,5.182,0,0,0,4.5-3.423c.1-.034,2.658-6.791,2.658-6.791s6.232-1.345,6.9-10.179c-.076,0,.668-8.521-4.455-13.129,0-.085-3.928-1.94-2.447,1.623.074.074,2.82,2.156,2.447,11.506.152-.078-1.482,4.151-3.93.59-.15-.147-6.016-14.62-6.016-14.544a14.362,14.362,0,0,0-7.047-4.082c-.076.222-6.605-.223-9.35-2,.291.075-7.5-3.636-10.467-9.2.148-.074-2.295-4.008.707-3.267a10.268,10.268,0,0,1,3.895,4.6c-.074.073,6.309,6.6,10.908,1.928a4.187,4.187,0,0,0,0-5.862c-.072-.146-2.984-1.854-5.5-1.037.082,0-6.523-.816-10.383-4.9a8.038,8.038,0,0,0-6.162-1.558c0,.072-2.746.52,0,1.263.076,0,4.156,2,4.527,6.231.15.148-.518,4.306,2,6.532a5.54,5.54,0,0,1,1.486,7.718c0,.074-.744,2.671-2.75,2.6a8.785,8.785,0,0,0,.836-3.694s1.936-1.976.209-3.612c-.014-.052-3.9-1.637-5.227,1.169.029-.025-.777,2.391,3.484,2.937a4.459,4.459,0,0,1-4.107,4.548c.025.052-8,.586-9.689-6.067,0,0-1.457-1.758-2.2.777a6.931,6.931,0,0,1-1.518,5.29,15.134,15.134,0,0,1,4.41,10.677c-.072,0,1.051,8.65-.486,14.534-.076,0,.354,3.337-2.506,3.908.09,0-3.467.132-3.773,2.328a2.1,2.1,0,0,0,2.105,2.546c.045-.044,7.381.047,7.381.047s2.68.45,3.029-2.126c.043-.116,1.758-10.26.439-14.916.088.132-.879-3.557-3.205-4.786,0-.043-1.363-2.635,1.58-2.063,0-.044,3.775.748,5.445,5.489a27.884,27.884,0,0,1,1.143,10.583C-17028.852-10418.694-17029.615-10413.685-17026.7-10412.746Z" transform="translate(-40.211 -186.668)" fill="#ff9062"/>
        <path id="Path_21909" data-name="Path 21909" d="M-17059.094-10457.772c.807.033,2.006.681.34,7.006-.184.711-2.525,5.675-2.875,9.892,0,.043.129,4.521-4.746,4.039-.082-.046-3.381.045-3.6-3.293,0,0-.479-5.8,4.527-12.033C-17065.5-10452.206-17061.109-10457.907-17059.094-10457.772Z" transform="translate(-23.166 -196.112)" fill="#ff9062"/>
      </g>
      <path id="Path_21919" data-name="Path 21919" d="M-2889.3,7332.562a7.086,7.086,0,0,1,.481-.684c.638-.716,1.294-1.417,1.939-2.127a11.909,11.909,0,0,0,2.685-4.084,14.678,14.678,0,0,1,1.5-2.633c.507-.836.5-.827-.384-1.337a20.228,20.228,0,0,1-2.975-1.872,8.613,8.613,0,0,1-2.685-5.744c-.1-.749-.135-1.509-.2-2.264l.2-.115c1.217,1.058,2.4,2.159,3.66,3.158,1.282,1.016,2.646,1.927,4.041,2.934-.448-2.024.27-3.771.875-5.707,1.426,1.918,1.737,4.17,2.707,6.1a16.123,16.123,0,0,1,1.616-.951,1.7,1.7,0,0,1,1.919.234,1.189,1.189,0,0,0,.867.179,25.467,25.467,0,0,1,2.989-.48c-.818.3-1.647.565-2.452.9a5.4,5.4,0,0,0-3.082,3.335c-.158.438-.329.87-.47,1.313a5.588,5.588,0,0,1-4.18,4,8.089,8.089,0,0,0-3.952,2.683c-.215.235-.428.472-.781.86.078-.442.118-.674.187-1.064l-4.256,3.608Z" transform="translate(-14211.961 -17935.918)" fill="#ff9062"/>
    </g>
    <g id="Group_16903" data-name="Group 16903" transform="translate(0 -31.392)">
      <rect id="Rectangle_19365" data-name="Rectangle 19365" width="41" height="10" transform="translate(-20208.221 -8497.902)" fill="#fff"/>
      <g id="Pethowz" transform="translate(-20359.223 -8874.849)" style="isolation: isolate">
        <g id="Group_17648" data-name="Group 17648" style="isolation: isolate">
          <path id="Path_25614" data-name="Path 25614" d="M155.936,380.24l.421.422v.4h0l-.159.246-2.912,4.312.6-.75V386h-1.16l-.481-.48v-3.428l.82,1.441-1.418-3.293Zm-2.051,3.006,1.476-2.185h-1.47Z" fill="#ff9062"/>
          <path id="Path_25615" data-name="Path 25615" d="M158.889,381.061v1.582l-.809.064h2.455v.826h-1.646v1.576l-.809.071h3.275V386h-3.632l-.481-.48v-3.457l.838,1.47-1.418-3.293h4.272l.421.422v.4Z" fill="#ff9062"/>
          <path id="Path_25616" data-name="Path 25616" d="M166.359,380.662v.4H164.83L164.824,386h-1.16l-.48-.48v-3.457l.837,1.47-1.066-2.472h-.937l-.352-.821h4.271Z" fill="#ff9062"/>
          <path id="Path_25617" data-name="Path 25617" d="M171.363,386h-1.646v-.82H168.9V386H167.73l-.48-.48v-3.457l.838,1.47-1.418-3.293H168.9v4.114h1.823l-1-.077V380.24h1.166l.48.481Z" fill="#ff9062"/>
          <path id="Path_25618" data-name="Path 25618" d="M176.367,385.18V386h-3.633l-.48-.48v-3.457l.838,1.47-1.418-3.293h4.213l.48.481Zm-1.646,0v-4.119H173.9v4.048l-.808.071Z" fill="#ff9062"/>
          <path id="Path_25619" data-name="Path 25619" d="M185.947,380.24c.063.09.139.2.229.323s.166.232.228.322L184.576,386H182.93l-1.26-3.533L180.41,386h-2.666l1.078-3.293-.7,1.512-1.189-3.334.222-.322c.086-.125.162-.233.229-.323h.961l1.236,3.457,1.236-3.457h1.7l1.23,3.457,1.236-3.457Z" fill="#ff9062"/>
          <path id="Path_25620" data-name="Path 25620" d="M187.242,385.18l2.42-4.037,1.049-.082h-3.645l-.351-.821h4.16l.48.481v.34l-2.414,4.037-1.054.082Zm0,0h4.113V386h-3.626l-.481-.48Z" fill="#ff9062"/>
        </g>
      </g>
    </g>
  </g>
</svg>
