<svg xmlns="http://www.w3.org/2000/svg" width="22.611" height="22.611" viewBox="0 0 22.611 22.611">
  <path id="Path_27517" data-name="Path 27517" d="M11,12.65a13.26,13.26,0,0,0,4.964,4.964l1.11-1.555a1.256,1.256,0,0,1,1.625-.372A14.348,14.348,0,0,0,24.454,17.4a1.256,1.256,0,0,1,1.157,1.252v5.605a1.256,1.256,0,0,1-1.128,1.25A19.482,19.482,0,0,1,3.1,4.128,1.256,1.256,0,0,1,4.353,3H9.958A1.256,1.256,0,0,1,11.21,4.157a14.348,14.348,0,0,0,1.713,5.757,1.256,1.256,0,0,1-.372,1.625L11,12.65Zm-3.168-.825,2.387-1.7A16.845,16.845,0,0,1,8.837,5.512H5.525c-.008.209-.011.418-.011.628A16.956,16.956,0,0,0,22.471,23.1c.21,0,.42,0,.628-.013V19.774A16.845,16.845,0,0,1,18.491,18.4l-1.7,2.387a15.63,15.63,0,0,1-1.995-.942l-.073-.041a15.772,15.772,0,0,1-5.907-5.907l-.041-.073a15.629,15.629,0,0,1-.942-1.995Z" transform="translate(-3 -3)" fill="#ffa47f"/>
</svg>
