<svg xmlns="http://www.w3.org/2000/svg" width="13.961" height="18.606" viewBox="0 0 13.961 18.606">
  <path id="_24034382416276587583774" data-name="24034382416276587583774" d="M26.789,17.778h2.885a.907.907,0,0,1,0,1.814H26.789A5.08,5.08,0,0,1,21.8,23.766H19.818l6.8,6.8a.908.908,0,0,1-1.284,1.284l-8.35-8.35a.907.907,0,0,1,.313-1.483c-.132-.132,4.45-.045,4.536-.068a3.266,3.266,0,0,0,3.13-2.359H17.627a.907.907,0,0,1,0-1.814h7.3a3.266,3.266,0,0,0-3.13-2.354H17.627a.907.907,0,0,1,0-1.814H29.674a.907.907,0,0,1,0,1.814H25.683a5.035,5.035,0,0,1,1.107,2.354Z" transform="translate(-16.67 -13.56)" fill="#3e3e3e" stroke="#fff" stroke-width="0.1"/>
</svg>
