<svg xmlns="http://www.w3.org/2000/svg" width="22.436" height="19.952" viewBox="0 0 22.436 19.952">
  <path id="Path_27506" data-name="Path 27506" d="M3.245,4.553a6.787,6.787,0,0,1,9.231-.343A6.788,6.788,0,0,1,22.06,13.77L13.952,21.9a2.088,2.088,0,0,1-2.839.107L11,21.906,2.89,13.77a6.788,6.788,0,0,1,.355-9.217ZM4.722,6.03a4.7,4.7,0,0,0-.152,6.485l.152.161,7.753,7.754,5.538-5.539L14.321,11.2l-1.107,1.107a3.133,3.133,0,0,1-4.432-4.43l2.195-2.2a4.7,4.7,0,0,0-6.1.2l-.161.152Zm8.861,2.953a1.044,1.044,0,0,1,1.477,0l4.43,4.43.739-.737a4.7,4.7,0,0,0-6.486-6.8l-.16.152L10.26,9.353a1.044,1.044,0,0,0-.081,1.386l.081.091a1.044,1.044,0,0,0,1.386.081l.091-.081Z" transform="translate(-1.257 -2.565)" fill="#ff9a71"/>
</svg>
